<svg xmlns="http://www.w3.org/2000/svg" width="800" height="600" data-software-used-string="@tscircuit/core@0.0.555"><style/><rect width="800" height="600" x="0" y="0" fill="#000" class="boundary"/><rect width="556.204" height="556.204" x="121.898" y="21.898" fill="none" stroke="#fff" stroke-width=".3" class="pcb-boundary"/><path fill="none" stroke="rgba(255, 255, 255, 0.5)" stroke-width="2.19" d="M 121.89781021897812 578.1021897810219 L 678.1021897810219 578.1021897810219 L 678.1021897810219 21.89781021897801 L 121.89781021897812 21.89781021897801 Z" class="pcb-board"/><path fill="none" stroke="#4D7FC4" stroke-linecap="round" stroke-linejoin="round" stroke-width="6.953" d="M 392.7737226277373 383.4306569343065 L 384.4306569343066 383.4306569343065" class="pcb-trace" data-layer="bottom" shape-rendering="crispEdges"/><path fill="none" stroke="#4D7FC4" stroke-linecap="round" stroke-linejoin="round" stroke-width="6.953" d="M 369.97810218978105 383.4306569343065 L 361.63503649635044 383.4306569343065" class="pcb-trace" data-layer="bottom" shape-rendering="crispEdges"/><path fill="none" stroke="#4D7FC4" stroke-linecap="round" stroke-linejoin="round" stroke-width="6.953" d="M 170.29197080291974 216.56934306569337 L 161.94890510948906 216.56934306569337" class="pcb-trace" data-layer="bottom" shape-rendering="crispEdges"/><path fill="none" stroke="#4D7FC4" stroke-linecap="round" stroke-linejoin="round" stroke-width="6.953" d="M 615.2554744525548 216.56934306569337 L 606.9124087591242 216.56934306569337" class="pcb-trace" data-layer="bottom" shape-rendering="crispEdges"/><path fill="none" stroke="#4D7FC4" stroke-linecap="round" stroke-linejoin="round" stroke-width="6.953" d="M 170.29197080291974 299.99999999999994 L 161.94890510948906 299.99999999999994" class="pcb-trace" data-layer="bottom" shape-rendering="crispEdges"/><rect width="14.453" height="27.81" x="392.774" y="369.526" fill="#4D7FC4" class="pcb-pad" data-layer="bottom"/><rect width="14.453" height="27.81" x="369.978" y="369.526" fill="#4D7FC4" class="pcb-pad" data-layer="bottom"/><rect width="14.453" height="27.81" x="347.182" y="369.526" fill="#4D7FC4" class="pcb-pad" data-layer="bottom"/><rect width="14.453" height="27.81" x="170.292" y="202.664" fill="#4D7FC4" class="pcb-pad" data-layer="bottom"/><rect width="14.453" height="27.81" x="147.496" y="202.664" fill="#4D7FC4" class="pcb-pad" data-layer="bottom"/><rect width="14.453" height="27.81" x="615.255" y="202.664" fill="#4D7FC4" class="pcb-pad" data-layer="bottom"/><rect width="14.453" height="27.81" x="592.46" y="202.664" fill="#4D7FC4" class="pcb-pad" data-layer="bottom"/><rect width="14.453" height="27.81" x="170.292" y="286.095" fill="#4D7FC4" class="pcb-pad" data-layer="bottom"/><rect width="14.453" height="27.81" x="147.496" y="286.095" fill="#4D7FC4" class="pcb-pad" data-layer="bottom"/><rect width="12.81" height="5.475" x="360.367" y="275.365" fill="#C83434" class="pcb-pad" data-layer="top"/><rect width="12.81" height="5.475" x="426.823" y="275.365" fill="#C83434" class="pcb-pad" data-layer="top"/><rect width="12.81" height="5.475" x="360.367" y="286.317" fill="#C83434" class="pcb-pad" data-layer="top"/><rect width="12.81" height="5.475" x="426.823" y="286.317" fill="#C83434" class="pcb-pad" data-layer="top"/><rect width="12.81" height="5.475" x="360.367" y="297.263" fill="#C83434" class="pcb-pad" data-layer="top"/><rect width="12.81" height="5.475" x="426.823" y="297.263" fill="#C83434" class="pcb-pad" data-layer="top"/><rect width="12.81" height="5.475" x="360.367" y="308.214" fill="#C83434" class="pcb-pad" data-layer="top"/><rect width="12.81" height="5.475" x="426.823" y="308.214" fill="#C83434" class="pcb-pad" data-layer="top"/><rect width="12.81" height="5.475" x="360.367" y="319.16" fill="#C83434" class="pcb-pad" data-layer="top"/><rect width="12.81" height="5.475" x="426.823" y="319.16" fill="#C83434" class="pcb-pad" data-layer="top"/><rect width="24.088" height="21.898" x="258.102" y="205.62" fill="#C83434" class="pcb-pad" data-layer="top"/><rect width="24.088" height="21.898" x="295.328" y="205.62" fill="#C83434" class="pcb-pad" data-layer="top"/><rect width="21.898" height="24.088" x="500.292" y="306.569" fill="#C83434" class="pcb-pad" data-layer="top"/><rect width="21.898" height="24.088" x="500.292" y="269.343" fill="#C83434" class="pcb-pad" data-layer="top"/><rect width="24.088" height="21.898" x="-12.044" y="-10.949" fill="#C83434" class="pcb-pad" data-layer="top" transform="translate(474.23357664233583 411.2408759124087) rotate(-180)"/><rect width="24.088" height="21.898" x="-12.044" y="-10.949" fill="#C83434" class="pcb-pad" data-layer="top" transform="translate(437.0072992700731 411.2408759124087) rotate(-180)"/><rect width="24.088" height="21.898" x="313.723" y="400.292" fill="#C83434" class="pcb-pad" data-layer="top"/><rect width="24.088" height="21.898" x="350.949" y="400.292" fill="#C83434" class="pcb-pad" data-layer="top"/><rect width="21.898" height="24.088" x="277.81" y="269.343" fill="#C83434" class="pcb-pad" data-layer="top"/><rect width="21.898" height="24.088" x="277.81" y="306.569" fill="#C83434" class="pcb-pad" data-layer="top"/><rect width="24.088" height="21.898" x="-12.044" y="-10.949" fill="#C83434" class="pcb-pad" data-layer="top" transform="translate(196.1313868613139 174.85401459854006) rotate(-180)"/><rect width="24.088" height="21.898" x="-12.044" y="-10.949" fill="#C83434" class="pcb-pad" data-layer="top" transform="translate(158.90510948905114 174.85401459854006) rotate(-180)"/><rect width="24.088" height="21.898" x="480.584" y="205.62" fill="#C83434" class="pcb-pad" data-layer="top"/><rect width="24.088" height="21.898" x="517.81" y="205.62" fill="#C83434" class="pcb-pad" data-layer="top"/><rect width="24.088" height="21.898" x="-12.044" y="-10.949" fill="#C83434" class="pcb-pad" data-layer="top" transform="translate(418.61313868613144 216.56934306569337) rotate(-180)"/><rect width="24.088" height="21.898" x="-12.044" y="-10.949" fill="#C83434" class="pcb-pad" data-layer="top" transform="translate(381.3868613138687 216.56934306569337) rotate(-180)"/><rect width="29.562" height="13.139" x="218.358" y="260.584" fill="#C83434" class="pcb-pad" data-layer="top"/><rect width="29.562" height="13.139" x="218.358" y="282.482" fill="#C83434" class="pcb-pad" data-layer="top"/><rect width="29.562" height="13.139" x="218.358" y="304.38" fill="#C83434" class="pcb-pad" data-layer="top"/><rect width="29.562" height="13.139" x="218.358" y="326.277" fill="#C83434" class="pcb-pad" data-layer="top"/><rect width="43.796" height="26.277" x="130.766" y="225.547" fill="#C83434" class="pcb-pad" data-layer="top"/><rect width="43.796" height="26.277" x="130.766" y="348.175" fill="#C83434" class="pcb-pad" data-layer="top"/><rect width="29.562" height="13.139" x="552.08" y="326.277" fill="#C83434" class="pcb-pad" data-layer="top"/><rect width="29.562" height="13.139" x="552.08" y="304.38" fill="#C83434" class="pcb-pad" data-layer="top"/><rect width="29.562" height="13.139" x="552.08" y="282.482" fill="#C83434" class="pcb-pad" data-layer="top"/><rect width="29.562" height="13.139" x="552.08" y="260.584" fill="#C83434" class="pcb-pad" data-layer="top"/><rect width="43.796" height="26.277" x="625.438" y="348.175" fill="#C83434" class="pcb-pad" data-layer="top"/><rect width="43.796" height="26.277" x="625.438" y="225.547" fill="#C83434" class="pcb-pad" data-layer="top"/><path fill="none" stroke="#f2eda1" stroke-linecap="round" stroke-linejoin="round" stroke-width="2.19" d="M 307.3722627737227 196.86131386861308 L 253.72262773722633 196.86131386861308 L 253.72262773722633 236.27737226277367 L 307.3722627737227 236.27737226277367" class="pcb-silkscreen pcb-silkscreen-top" data-pcb-component-id="pcb_component_1" data-pcb-silkscreen-path-id="pcb_silkscreen_path_0"/><path fill="none" stroke="#f2eda1" stroke-linecap="round" stroke-linejoin="round" stroke-width="2.19" d="M 491.53284671532856 281.38686131386856 L 491.53284671532856 335.0364963503649 L 530.9489051094891 335.0364963503649 L 530.9489051094891 281.38686131386856" class="pcb-silkscreen pcb-silkscreen-top" data-pcb-component-id="pcb_component_2" data-pcb-silkscreen-path-id="pcb_silkscreen_path_1"/><path fill="none" stroke="#5da9e9" stroke-linecap="round" stroke-linejoin="round" stroke-width="3.285" d="M 414.89051094890516 408.2846715328467 L 339.5182481751825 408.2846715328467 L 339.5182481751825 358.5766423357664 L 414.89051094890516 358.5766423357664 L 414.89051094890516 408.2846715328467 Z" class="pcb-silkscreen pcb-silkscreen-bottom" data-pcb-component-id="pcb_component_3" data-pcb-silkscreen-path-id="pcb_silkscreen_path_2"/><path fill="none" stroke="#f2eda1" stroke-linecap="round" stroke-linejoin="round" stroke-width="2.19" d="M 437.0072992700731 430.94890510948903 L 490.6569343065694 430.94890510948903 L 490.6569343065694 391.53284671532845 L 437.0072992700731 391.53284671532845" class="pcb-silkscreen pcb-silkscreen-top" data-pcb-component-id="pcb_component_4" data-pcb-silkscreen-path-id="pcb_silkscreen_path_3"/><path fill="none" stroke="#f2eda1" stroke-linecap="round" stroke-linejoin="round" stroke-width="2.19" d="M 362.99270072992704 391.53284671532845 L 309.34306569343073 391.53284671532845 L 309.34306569343073 430.94890510948903 L 362.99270072992704 430.94890510948903" class="pcb-silkscreen pcb-silkscreen-top" data-pcb-component-id="pcb_component_5" data-pcb-silkscreen-path-id="pcb_silkscreen_path_4"/><path fill="none" stroke="#f2eda1" stroke-linecap="round" stroke-linejoin="round" stroke-width="2.19" d="M 308.46715328467155 318.6131386861313 L 308.46715328467155 264.96350364963496 L 269.05109489051097 264.96350364963496 L 269.05109489051097 318.6131386861313" class="pcb-silkscreen pcb-silkscreen-top" data-pcb-component-id="pcb_component_6" data-pcb-silkscreen-path-id="pcb_silkscreen_path_5"/><path fill="none" stroke="#f2eda1" stroke-linecap="round" stroke-linejoin="round" stroke-width="2.19" d="M 158.90510948905114 194.56204379562038 L 212.55474452554748 194.56204379562038 L 212.55474452554748 155.1459854014598 L 158.90510948905114 155.14598540145977" class="pcb-silkscreen pcb-silkscreen-top" data-pcb-component-id="pcb_component_7" data-pcb-silkscreen-path-id="pcb_silkscreen_path_6"/><path fill="none" stroke="#5da9e9" stroke-linecap="round" stroke-linejoin="round" stroke-width="3.285" d="M 192.40875912408762 241.42335766423352 L 139.83211678832117 241.42335766423352 L 139.83211678832117 191.7153284671532 L 192.40875912408762 191.7153284671532 L 192.40875912408762 241.42335766423352 Z" class="pcb-silkscreen pcb-silkscreen-bottom" data-pcb-component-id="pcb_component_8" data-pcb-silkscreen-path-id="pcb_silkscreen_path_7"/><path fill="none" stroke="#5da9e9" stroke-linecap="round" stroke-linejoin="round" stroke-width="3.285" d="M 637.3722627737227 241.42335766423352 L 584.7956204379562 241.42335766423352 L 584.7956204379562 191.7153284671532 L 637.3722627737227 191.7153284671532 L 637.3722627737227 241.42335766423352 Z" class="pcb-silkscreen pcb-silkscreen-bottom" data-pcb-component-id="pcb_component_9" data-pcb-silkscreen-path-id="pcb_silkscreen_path_8"/><path fill="none" stroke="#f2eda1" stroke-linecap="round" stroke-linejoin="round" stroke-width="2.19" d="M 529.8540145985402 196.86131386861308 L 476.20437956204387 196.86131386861308 L 476.20437956204387 236.27737226277367 L 529.8540145985402 236.27737226277367" class="pcb-silkscreen pcb-silkscreen-top" data-pcb-component-id="pcb_component_10" data-pcb-silkscreen-path-id="pcb_silkscreen_path_9"/><path fill="none" stroke="#5da9e9" stroke-linecap="round" stroke-linejoin="round" stroke-width="3.285" d="M 192.40875912408762 324.8540145985401 L 139.83211678832117 324.8540145985401 L 139.83211678832117 275.14598540145977 L 192.40875912408762 275.14598540145977 L 192.40875912408762 324.8540145985401 Z" class="pcb-silkscreen pcb-silkscreen-bottom" data-pcb-component-id="pcb_component_11" data-pcb-silkscreen-path-id="pcb_silkscreen_path_10"/><path fill="none" stroke="#f2eda1" stroke-linecap="round" stroke-linejoin="round" stroke-width="2.19" d="M 381.3868613138687 236.27737226277367 L 435.03649635036504 236.27737226277367 L 435.03649635036504 196.86131386861308 L 381.3868613138687 196.86131386861308" class="pcb-silkscreen pcb-silkscreen-top" data-pcb-component-id="pcb_component_12" data-pcb-silkscreen-path-id="pcb_silkscreen_path_11"/><text x="0" y="0" fill="#f2eda1" stroke="none" class="pcb-silkscreen-text pcb-silkscreen-top" data-pcb-silkscreen-text-id="pcb_component_1" dominant-baseline="central" dx="0" dy="0" font-family="Arial, sans-serif" font-size="8.759" text-anchor="middle" transform="matrix(1,0,0,1,288.7591240875913,185.91240875912402)">C2</text><text x="0" y="0" fill="#f2eda1" stroke="none" class="pcb-silkscreen-text pcb-silkscreen-top" data-pcb-silkscreen-text-id="pcb_component_2" dominant-baseline="central" dx="0" dy="0" font-family="Arial, sans-serif" font-size="8.759" text-anchor="middle" transform="matrix(-1.8369701987210297e-16,-1,1,-1.8369701987210297e-16,480.58394160583947,299.99999999999994)">C1</text><text x="0" y="0" fill="#5da9e9" stroke="none" class="pcb-silkscreen-text pcb-silkscreen-bottom" data-pcb-silkscreen-text-id="pcb_component_3" dominant-baseline="central" dx="0" dy="0" font-family="Arial, sans-serif" font-size="13.139" text-anchor="middle" transform="matrix(-1,0,0,1,377.20437956204387,345.43795620437953)">JP1</text><text x="0" y="0" fill="#f2eda1" stroke="none" class="pcb-silkscreen-text pcb-silkscreen-top" data-pcb-silkscreen-text-id="pcb_component_4" dominant-baseline="central" dx="0" dy="0" font-family="Arial, sans-serif" font-size="8.759" text-anchor="middle" transform="matrix(-1,1.2246467991473532e-16,-1.2246467991473532e-16,-1,455.62043795620446,441.89781021897807)">R1</text><text x="0" y="0" fill="#f2eda1" stroke="none" class="pcb-silkscreen-text pcb-silkscreen-top" data-pcb-silkscreen-text-id="pcb_component_5" dominant-baseline="central" dx="0" dy="0" font-family="Arial, sans-serif" font-size="8.759" text-anchor="middle" transform="matrix(1,0,0,1,344.37956204379566,380.58394160583936)">R2</text><text x="0" y="0" fill="#f2eda1" stroke="none" class="pcb-silkscreen-text pcb-silkscreen-top" data-pcb-silkscreen-text-id="pcb_component_6" dominant-baseline="central" dx="0" dy="0" font-family="Arial, sans-serif" font-size="8.759" text-anchor="middle" transform="matrix(6.123233995736766e-17,1,-1,6.123233995736766e-17,319.41605839416064,299.99999999999994)">R3</text><text x="0" y="0" fill="#f2eda1" stroke="none" class="pcb-silkscreen-text pcb-silkscreen-top" data-pcb-silkscreen-text-id="pcb_component_7" dominant-baseline="central" dx="0" dy="0" font-family="Arial, sans-serif" font-size="8.759" text-anchor="middle" transform="matrix(-1,1.2246467991473532e-16,-1.2246467991473532e-16,-1,177.51824817518252,205.51094890510944)">D1</text><text x="0" y="0" fill="#5da9e9" stroke="none" class="pcb-silkscreen-text pcb-silkscreen-bottom" data-pcb-silkscreen-text-id="pcb_component_8" dominant-baseline="central" dx="0" dy="0" font-family="Arial, sans-serif" font-size="13.139" text-anchor="middle" transform="matrix(-1,0,0,1,166.1204379562044,178.57664233576634)">JP3</text><text x="0" y="0" fill="#5da9e9" stroke="none" class="pcb-silkscreen-text pcb-silkscreen-bottom" data-pcb-silkscreen-text-id="pcb_component_9" dominant-baseline="central" dx="0" dy="0" font-family="Arial, sans-serif" font-size="13.139" text-anchor="middle" transform="matrix(-1,0,0,1,611.0839416058395,178.57664233576634)">JP2</text><text x="0" y="0" fill="#f2eda1" stroke="none" class="pcb-silkscreen-text pcb-silkscreen-top" data-pcb-silkscreen-text-id="pcb_component_10" dominant-baseline="central" dx="0" dy="0" font-family="Arial, sans-serif" font-size="8.759" text-anchor="middle" transform="matrix(1,0,0,1,511.2408759124088,185.91240875912402)">R4</text><text x="0" y="0" fill="#5da9e9" stroke="none" class="pcb-silkscreen-text pcb-silkscreen-bottom" data-pcb-silkscreen-text-id="pcb_component_11" dominant-baseline="central" dx="0" dy="0" font-family="Arial, sans-serif" font-size="13.139" text-anchor="middle" transform="matrix(-1,0,0,1,166.1204379562044,262.00729927007296)">JP4</text><text x="0" y="0" fill="#f2eda1" stroke="none" class="pcb-silkscreen-text pcb-silkscreen-top" data-pcb-silkscreen-text-id="pcb_component_12" dominant-baseline="central" dx="0" dy="0" font-family="Arial, sans-serif" font-size="8.759" text-anchor="middle" transform="matrix(-1,1.2246467991473532e-16,-1.2246467991473532e-16,-1,400.00000000000006,247.2262773722627)">R5</text><text x="0" y="0" fill="#f2eda1" stroke="none" class="pcb-silkscreen-text pcb-silkscreen-top" data-pcb-silkscreen-text-id="pcb_component_15" dominant-baseline="central" dx="0" dy="0" font-family="Arial, sans-serif" font-size="12.613" text-anchor="middle" transform="matrix(1,0,0,1,260.9489051094891,519.4160583941605)">pin1</text><text x="0" y="0" fill="#f2eda1" stroke="none" class="pcb-silkscreen-text pcb-silkscreen-top" data-pcb-silkscreen-text-id="pcb_component_15" dominant-baseline="central" dx="0" dy="0" font-family="Arial, sans-serif" font-size="12.613" text-anchor="middle" transform="matrix(1,0,0,1,316.5693430656935,519.4160583941605)">pin2</text><text x="0" y="0" fill="#f2eda1" stroke="none" class="pcb-silkscreen-text pcb-silkscreen-top" data-pcb-silkscreen-text-id="pcb_component_15" dominant-baseline="central" dx="0" dy="0" font-family="Arial, sans-serif" font-size="12.613" text-anchor="middle" transform="matrix(1,0,0,1,372.1897810218979,519.4160583941605)">pin3</text><text x="0" y="0" fill="#f2eda1" stroke="none" class="pcb-silkscreen-text pcb-silkscreen-top" data-pcb-silkscreen-text-id="pcb_component_15" dominant-baseline="central" dx="0" dy="0" font-family="Arial, sans-serif" font-size="12.613" text-anchor="middle" transform="matrix(1,0,0,1,427.8102189781023,519.4160583941605)">pin4</text><text x="0" y="0" fill="#f2eda1" stroke="none" class="pcb-silkscreen-text pcb-silkscreen-top" data-pcb-silkscreen-text-id="pcb_component_15" dominant-baseline="central" dx="0" dy="0" font-family="Arial, sans-serif" font-size="12.613" text-anchor="middle" transform="matrix(1,0,0,1,483.4306569343066,519.4160583941605)">pin5</text><text x="0" y="0" fill="#f2eda1" stroke="none" class="pcb-silkscreen-text pcb-silkscreen-top" data-pcb-silkscreen-text-id="pcb_component_15" dominant-baseline="central" dx="0" dy="0" font-family="Arial, sans-serif" font-size="12.613" text-anchor="middle" transform="matrix(1,0,0,1,539.051094890511,519.4160583941605)">pin6</text><text x="0" y="0" fill="#f2eda1" stroke="none" class="pcb-silkscreen-text pcb-silkscreen-top" data-pcb-silkscreen-text-id="pcb_component_15" dominant-baseline="central" dx="0" dy="0" font-family="Arial, sans-serif" font-size="15.328" text-anchor="middle" transform="matrix(1,0,0,1,400.00000000000006,494.6715328467153)">J3</text><g><circle cx="260.949" cy="550.292" r="20.584" fill="#C83434" class="pcb-hole-outer"/><circle cx="260.949" cy="550.292" r="11.124" fill="#FF26E2" class="pcb-hole-inner"/></g><g><circle cx="316.569" cy="550.292" r="20.584" fill="#C83434" class="pcb-hole-outer"/><circle cx="316.569" cy="550.292" r="11.124" fill="#FF26E2" class="pcb-hole-inner"/></g><g><circle cx="372.19" cy="550.292" r="20.584" fill="#C83434" class="pcb-hole-outer"/><circle cx="372.19" cy="550.292" r="11.124" fill="#FF26E2" class="pcb-hole-inner"/></g><g><circle cx="427.81" cy="550.292" r="20.584" fill="#C83434" class="pcb-hole-outer"/><circle cx="427.81" cy="550.292" r="11.124" fill="#FF26E2" class="pcb-hole-inner"/></g><g><circle cx="483.431" cy="550.292" r="20.584" fill="#C83434" class="pcb-hole-outer"/><circle cx="483.431" cy="550.292" r="11.124" fill="#FF26E2" class="pcb-hole-inner"/></g><g><circle cx="539.051" cy="550.292" r="20.584" fill="#C83434" class="pcb-hole-outer"/><circle cx="539.051" cy="550.292" r="11.124" fill="#FF26E2" class="pcb-hole-inner"/></g><circle cx="177.518" cy="77.518" r="36.153" fill="#FF26E2" class="pcb-hole"/><circle cx="622.482" cy="77.518" r="36.153" fill="#FF26E2" class="pcb-hole"/><circle cx="177.518" cy="522.482" r="36.153" fill="#FF26E2" class="pcb-hole"/><circle cx="622.482" cy="522.482" r="36.153" fill="#FF26E2" class="pcb-hole"/></svg>