<svg xmlns="http://www.w3.org/2000/svg" width="1200" height="600" style="background-color:#f5f1ed" data-real-to-screen-transform="matrix(48.9476260401,0,0,-48.9476260401,524.1311796378,227.6064610866)" data-software-used-string="@tscircuit/core@0.0.555"><style>.boundary{fill:#f5f1ed}.chip,.component{stroke:#840000}.component{fill:none}.chip{fill:#ffffc2}.component-pin{fill:none;stroke:#840000}.trace:hover{filter:invert(1)}.pin-number{fill:#a90000}</style><rect width="1200" height="600" x="0" y="0" class="boundary"/><g data-circuit-json-type="schematic_component" data-schematic-component-id="schematic_component_0"><rect width="73.421" height="46.5" x="389.525" y="130.935" fill="#FFFFC2" stroke="#840000" stroke-width=".979" class="component chip"/><rect width="73.421" height="46.5" x="389.525" y="130.935" fill="transparent" class="component-overlay"/><text x="389.525" y="183.798" fill="#006464" dominant-baseline="middle" font-family="sans-serif" font-size="8.811" text-anchor="start" transform="rotate(0, 389.52520802752497, 183.79833578071052)">STHS34PF80</text><text x="389.525" y="124.572" fill="#006464" dominant-baseline="middle" font-family="sans-serif" font-size="8.811" text-anchor="start" transform="rotate(0, 389.52520802752497, 124.57170827218951)">U2</text><line x1="481.547" x2="462.947" y1="150.514" y2="150.514" stroke-width=".979" class="component-pin"/><text x="472.736" y="149.535" fill="#A90000" class="pin-number" style="font-family:sans-serif" dominant-baseline="auto" font-size="7.342" text-anchor="middle">1</text><text x="458.052" y="150.514" fill="#A90000" class="pin-number" style="font-family:sans-serif" dominant-baseline="middle" font-size="7.342" text-anchor="end">SCL</text><line x1="370.925" x2="389.525" y1="150.514" y2="150.514" stroke-width=".979" class="component-pin"/><text x="379.736" y="149.535" fill="#A90000" class="pin-number" style="font-family:sans-serif" dominant-baseline="auto" font-size="7.342" text-anchor="middle">3</text><text x="394.42" y="150.514" fill="#A90000" class="pin-number" style="font-family:sans-serif;text-decoration:overline" dominant-baseline="middle" font-size="5.874" text-anchor="start">CS</text><line x1="481.547" x2="462.947" y1="140.724" y2="140.724" stroke-width=".979" class="component-pin"/><text x="472.736" y="139.745" fill="#A90000" class="pin-number" style="font-family:sans-serif" dominant-baseline="auto" font-size="7.342" text-anchor="middle">4</text><text x="458.052" y="140.724" fill="#A90000" class="pin-number" style="font-family:sans-serif" dominant-baseline="middle" font-size="7.342" text-anchor="end">SDA</text><line x1="370.925" x2="389.525" y1="140.724" y2="140.724" stroke-width=".979" class="component-pin"/><text x="379.736" y="139.745" fill="#A90000" class="pin-number" style="font-family:sans-serif" dominant-baseline="auto" font-size="7.342" text-anchor="middle">6</text><text x="394.42" y="140.724" fill="#A90000" class="pin-number" style="font-family:sans-serif" dominant-baseline="middle" font-size="7.342" text-anchor="start">VDD</text><line x1="370.925" x2="389.525" y1="167.646" y2="167.646" stroke-width=".979" class="component-pin"/><text x="379.736" y="166.667" fill="#A90000" class="pin-number" style="font-family:sans-serif" dominant-baseline="auto" font-size="7.342" text-anchor="middle">7</text><text x="394.42" y="167.646" fill="#A90000" class="pin-number" style="font-family:sans-serif" dominant-baseline="middle" font-size="7.342" text-anchor="start">GND</text><line x1="481.547" x2="462.947" y1="167.646" y2="167.646" stroke-width=".979" class="component-pin"/><text x="472.736" y="166.667" fill="#A90000" class="pin-number" style="font-family:sans-serif" dominant-baseline="auto" font-size="7.342" text-anchor="middle">10</text><text x="458.052" y="167.646" fill="#A90000" class="pin-number" style="font-family:sans-serif" dominant-baseline="middle" font-size="7.342" text-anchor="end">INT</text></g><g data-circuit-json-type="schematic_component" data-schematic-component-id="schematic_component_1"><rect width="25.901" height="51.803" x="290.885" y="138.378" fill="transparent" class="component-overlay"/><path fill="none" stroke="#840000" stroke-linecap="round" stroke-width=".979" d="M 303.83605237413894 138.3779833578374 L 303.83605237413894 160.39421439061564"/><path fill="none" stroke="#840000" stroke-linecap="round" stroke-width=".979" d="M 303.83605237413894 168.16465002448152 L 303.83605237413894 190.18088595202235"/><path fill="none" stroke="#840000" stroke-linecap="round" stroke-width=".979" d="M 290.88532794928346 160.39421439061564 L 316.78677679899465 160.39421439061564"/><path fill="none" stroke="#840000" stroke-linecap="round" stroke-width=".979" d="M 290.88532794928346 168.16465002448152 L 316.78677679899465 168.16465002448152"/><text x="314.934" y="154.291" fill="#0F0F0F" dominant-baseline="auto" font-family="sans-serif" font-size="8.811" text-anchor="start">C2</text><text x="314.934" y="173.658" fill="#0F0F0F" dominant-baseline="hanging" font-family="sans-serif" font-size="8.811" text-anchor="start">100nF</text></g><g data-circuit-json-type="schematic_component" data-schematic-component-id="schematic_component_2"><rect width="25.901" height="51.803" x="241.938" y="138.378" fill="transparent" class="component-overlay"/><path fill="none" stroke="#840000" stroke-linecap="round" stroke-width=".979" d="M 254.888426334039 138.3779833578374 L 254.888426334039 160.39421439061564"/><path fill="none" stroke="#840000" stroke-linecap="round" stroke-width=".979" d="M 254.888426334039 168.16465002448152 L 254.888426334039 190.18088595202235"/><path fill="none" stroke="#840000" stroke-linecap="round" stroke-width=".979" d="M 241.9377019091835 160.39421439061564 L 267.8391507588947 160.39421439061564"/><path fill="none" stroke="#840000" stroke-linecap="round" stroke-width=".979" d="M 241.9377019091835 168.16465002448152 L 267.8391507588947 168.16465002448152"/><text x="265.987" y="154.291" fill="#0F0F0F" dominant-baseline="auto" font-family="sans-serif" font-size="8.811" text-anchor="start">C1</text><text x="265.987" y="173.658" fill="#0F0F0F" dominant-baseline="hanging" font-family="sans-serif" font-size="8.811" text-anchor="start">100nF</text></g><g data-circuit-json-type="schematic_component" data-schematic-component-id="schematic_component_3"><rect width="43.284" height="23.452" x="624.869" y="117.515" fill="transparent" class="component-overlay"/><path fill="none" stroke="#840000" stroke-linecap="round" stroke-width=".979" d="M 657.2757464512088 134.6403803475612 L 668.153749388058 134.6403803475612"/><path fill="none" stroke="#840000" stroke-linecap="round" stroke-width=".979" d="M 624.8693196279343 134.7243108419322 L 635.7207244247934 134.7243108419322"/><path fill="none" stroke="#840000" stroke-linecap="round" stroke-width=".979" d="M 640.6497601565567 134.72392905044907 L 644.3018404306606 134.72392905044907"/><path fill="none" stroke="#840000" stroke-linecap="round" stroke-width=".979" d="M 646.627919725813 128.39250467453613 L 646.627919725813 117.51450173768681"/><path fill="none" stroke="#840000" stroke-linecap="round" stroke-width=".979" d="M 640.6175917767231 140.86356683801174 L 640.6175917767231 128.5294209740955"/><path fill="none" stroke="#840000" stroke-linecap="round" stroke-width=".979" d="M 644.3911600586586 140.65275430741963 L 644.3911600586586 128.73283751839293"/><path fill="none" stroke="#840000" stroke-linecap="round" stroke-width=".979" d="M 648.7732697013375 140.66637643174656 L 648.7732697013375 128.76076703381136"/><path fill="none" stroke="#840000" stroke-linecap="round" stroke-width=".979" d="M 644.4865198237098 140.6884518110907 L 648.73432697006 140.6884518110907"/><path fill="none" stroke="#840000" stroke-linecap="round" stroke-width=".979" d="M 644.4960254526868 128.716841434203 L 648.7167400880238 128.716841434203"/><path fill="none" stroke="#840000" stroke-linecap="round" stroke-width=".979" d="M 652.4232941751478 140.8682804943994 L 652.4232941751478 128.53413463048318"/><path fill="none" stroke="#840000" stroke-linecap="round" stroke-width=".979" d="M 652.6506950562049 128.36961676459975 L 652.6506950562049 128.36961676459975 L 653.4155871373849 128.78209118003787 L 654.1036733763938 129.20969037167657 L 654.7175313214995 129.65084859523998 L 655.2597385209698 130.10400010645228 L 655.7328725230723 130.5675791610376 L 656.1395108760751 131.04002001472008 L 656.4822311282456 131.51975692322392 L 656.7636108278521 132.00522414227325 L 656.986227523162 132.4948559275922 L 657.1526587624433 132.98708653490496 L 657.2654820939637 133.4803502199357 L 657.3272750659909 133.97308123840853 L 657.3406152267929 134.4637138460476 L 657.3080801246374 134.9506822985771 L 657.2322473077922 135.43242085172116 L 657.1156943245252 135.90736376120395 L 656.960998723104 136.37394528274962 L 656.7707380517966 136.83059967208231 L 656.5474898588706 137.2757611849262 L 656.2938316925938 137.70786407700544 L 656.0123411012343 138.12534260404414 L 655.7055956330595 138.5266310217665 L 655.3761728363374 138.91016358589667 L 655.0266502593358 139.27437455215878 L 654.6596054503225 139.617698176277 L 654.2776159575652 139.9385687139755 L 653.8832593293317 140.23542042097841 L 653.47911311389 140.5066875530099 L 653.0677548595077 140.7508043657941 L 652.6517621144526 140.96620511505517 L 652.6517621144526 140.9662051150552"/><path fill="none" stroke="#840000" stroke-linecap="round" stroke-width=".979" d="M 640.3938423885686 128.36341020561787 L 640.3938423885686 128.36341020561787 L 639.6289503073887 128.775884621056 L 638.9408640683797 129.2034838126947 L 638.327006123274 129.64464203625812 L 637.7847989238038 130.09779354747042 L 637.3116649217012 130.5613726020557 L 636.9050265686985 131.03381345573823 L 636.5623063165278 131.51355036424206 L 636.2809266169214 131.9990175832914 L 636.0583099216116 132.48864936861034 L 635.8918786823302 132.9808799759231 L 635.7790553508099 133.4741436609538 L 635.7172623787826 133.96687467942664 L 635.7039222179806 134.45750728706574 L 635.7364573201361 134.94447573959525 L 635.8122901369812 135.4262142927393 L 635.9288431202483 135.9011572022221 L 636.0835387216695 136.36773872376776 L 636.273799392977 136.82439311310046 L 636.497047585903 137.26955462594435 L 636.7507057521797 137.70165751802355 L 637.0321963435393 138.11913604506228 L 637.3389418117141 138.52042446278463 L 637.6683646084361 138.9039570269148 L 638.0178871854378 139.26816799317692 L 638.3849319944511 139.61149161729514 L 638.7669214872084 139.93236215499365 L 639.1612781154417 140.22921386199656 L 639.5654243308835 140.50048099402804 L 639.9767825852658 140.74459780681224 L 640.3927753303209 140.95999855607332 L 640.3927753303209 140.95999855607332"/><path fill="none" stroke="#840000" stroke-linecap="round" stroke-width=".979" d="M 648.777082721406 134.72392905044907 L 652.4291629955101 134.72392905044907"/><text x="647.51" y="143.406" fill="#0F0F0F" dominant-baseline="hanging" font-family="sans-serif" font-size="8.811" text-anchor="middle">JP1</text></g><g data-circuit-json-type="schematic_component" data-schematic-component-id="schematic_component_4"><rect width="12.951" height="51.803" x="605.731" y="152.766" fill="transparent" class="component-overlay"/><path fill="none" stroke="#840000" stroke-linecap="round" stroke-width=".979" d="M 612.2060964267689 204.56930004892774 L 612.2060964267689 191.61857562407218"/><path fill="none" stroke="#840000" stroke-linecap="round" stroke-width=".979" d="M 612.2060964267689 165.71712677436096 L 612.2060964267689 152.7663974547428"/><path fill="none" stroke="#840000" stroke-linecap="round" stroke-width=".979" d="M 605.7307317669598 178.6678560939792 L 605.7307317669598 165.71713166912363 L 618.681461086578 165.71713166912363 L 618.681461086578 191.61858541359743 L 605.7307317669598 191.61858541359743 L 605.7307317669598 178.66785609397928"/><text x="625.697" y="171.684" fill="#0F0F0F" dominant-baseline="middle" font-family="sans-serif" font-size="8.811" text-anchor="start">R1</text><text x="625.697" y="187.347" fill="#0F0F0F" dominant-baseline="middle" font-family="sans-serif" font-size="8.811" text-anchor="start">2.2kΩ</text></g><g data-circuit-json-type="schematic_component" data-schematic-component-id="schematic_component_5"><rect width="12.951" height="51.803" x="674.257" y="152.766" fill="transparent" class="component-overlay"/><path fill="none" stroke="#840000" stroke-linecap="round" stroke-width=".979" d="M 680.732772882909 204.56930004892774 L 680.732772882909 191.61857562407218"/><path fill="none" stroke="#840000" stroke-linecap="round" stroke-width=".979" d="M 680.732772882909 165.71712677436096 L 680.732772882909 152.7663974547428"/><path fill="none" stroke="#840000" stroke-linecap="round" stroke-width=".979" d="M 674.2574082230999 178.6678560939792 L 674.2574082230999 165.71713166912363 L 687.2081375427181 165.71713166912363 L 687.2081375427181 191.61858541359743 L 674.2574082230999 191.61858541359743 L 674.2574082230999 178.66785609397928"/><text x="694.224" y="171.684" fill="#0F0F0F" dominant-baseline="middle" font-family="sans-serif" font-size="8.811" text-anchor="start">R2</text><text x="694.224" y="187.347" fill="#0F0F0F" dominant-baseline="middle" font-family="sans-serif" font-size="8.811" text-anchor="start">2.2kΩ</text></g><g data-circuit-json-type="schematic_component" data-schematic-component-id="schematic_component_6"><rect width="12.951" height="51.803" x="835.785" y="113.608" fill="transparent" class="component-overlay"/><path fill="none" stroke="#840000" stroke-linecap="round" stroke-width=".979" d="M 842.2599388152389 165.41119921684773 L 842.2599388152389 152.46047479199217"/><path fill="none" stroke="#840000" stroke-linecap="round" stroke-width=".979" d="M 842.2599388152389 126.55902594228095 L 842.2599388152389 113.60829662266279"/><path fill="none" stroke="#840000" stroke-linecap="round" stroke-width=".979" d="M 835.7845741554298 139.5097552618992 L 835.7845741554298 126.55903083704361 L 848.735303475048 126.55903083704361 L 848.735303475048 152.46048458151742 L 835.7845741554298 152.46048458151742 L 835.7845741554298 139.50975526189927"/><text x="855.751" y="132.526" fill="#0F0F0F" dominant-baseline="middle" font-family="sans-serif" font-size="8.811" text-anchor="start">R3</text><text x="855.751" y="148.189" fill="#0F0F0F" dominant-baseline="middle" font-family="sans-serif" font-size="8.811" text-anchor="start">1kΩ</text></g><g data-circuit-json-type="schematic_component" data-schematic-component-id="schematic_component_7"><rect width="22.489" height="51.501" x="826.458" y="177.406" fill="transparent" class="component-overlay"/><path fill="none" stroke="#840000" stroke-linecap="round" stroke-width=".979" d="M 842.4716789033445 209.7825501712929 L 848.9470435631538 196.83182574643735"/><path fill="none" stroke="#840000" stroke-linecap="round" stroke-width=".979" d="M 842.4826333820523 209.3801615271425 L 842.4826333820523 228.90633382277136"/><path fill="none" stroke="#840000" stroke-linecap="round" stroke-width=".979" d="M 835.9963142435354 196.83182574643735 L 842.4716789033445 209.7825501712929"/><path fill="none" stroke="#840000" stroke-linecap="round" stroke-width=".979" d="M 848.9470435631538 196.83182574643735 L 835.9963142435354 196.83182574643735"/><path fill="none" stroke="#840000" stroke-linecap="round" stroke-width=".979" d="M 835.9963142435354 209.7825501712929 L 848.9470435631538 209.7825501712929"/><path fill="none" stroke="#840000" stroke-linecap="round" stroke-width=".979" d="M 842.4716789033445 196.73178658833658 L 842.4716789033445 177.40573666177264"/><path fill="none" stroke="#840000" stroke-linecap="round" stroke-width=".979" d="M 828.3185119919506 210.75594224177672 L 827.4923152224944 215.52061674005992 L 832.032834067327 213.8415761135316"/><path fill="none" stroke="#840000" stroke-linecap="round" stroke-width=".979" d="M 834.1699461573891 207.04867841407514 L 833.7326970139728 207.6372001957683 L 829.3051003424147 213.59689182571975 L 829.2586000976765 213.627728830125"/><path fill="none" stroke="#840000" stroke-linecap="round" stroke-width=".979" d="M 827.2839255993915 202.0693881546565 L 826.4577288299354 206.83406265293974 L 830.9982476747679 205.1550220264114"/><path fill="none" stroke="#840000" stroke-linecap="round" stroke-width=".979" d="M 833.13535976483 198.36212432695493 L 832.6981106214137 198.9506461086481 L 828.2705139498555 204.91033773859954 L 828.2240137051175 204.9411747430048"/><text x="852.08" y="212.922" fill="#0F0F0F" dominant-baseline="middle" font-family="sans-serif" font-size="8.811" text-anchor="start">Red</text><text x="852.08" y="193.833" fill="#0F0F0F" dominant-baseline="middle" font-family="sans-serif" font-size="8.811" text-anchor="start">D1</text></g><g data-circuit-json-type="schematic_component" data-schematic-component-id="schematic_component_8"><rect width="12.603" height="43.133" x="836.005" y="240.315" fill="transparent" class="component-overlay"/><path fill="none" stroke="#840000" stroke-linecap="round" stroke-width=".979" d="M 842.3309887418175 270.7379148310607 L 842.3309887418175 283.44761135576965"/><path fill="none" stroke="#840000" stroke-linecap="round" stroke-width=".979" d="M 842.2470582474465 240.3151052373491 L 842.2470582474465 252.95665687708495"/><path fill="none" stroke="#840000" stroke-linecap="round" stroke-width=".979" d="M 842.2474400389297 258.5893636808007 L 842.2474400389297 265.10592266268515"/><path fill="none" stroke="#840000" stroke-linecap="round" stroke-width=".979" d="M 836.1078022513669 258.4963485070367 L 848.4419481152831 258.4963485070367"/><path fill="none" stroke="#840000" stroke-linecap="round" stroke-width=".979" d="M 836.1030885949793 265.20270190889164 L 848.4372344588955 265.20270190889164"/><path fill="none" stroke="#840000" stroke-linecap="round" stroke-width=".979" d="M 848.6017523247789 265.43010278994876 L 848.6017523247789 265.43010278994876 L 848.1892779093408 266.19499487112876 L 847.7616787177021 266.88308111013765 L 847.3205204941387 267.49693905524333 L 846.8673689829265 268.03914625471356 L 846.4037899283411 268.51228025681615 L 845.9313490746586 268.9189186098189 L 845.4516121661547 269.2616388619895 L 844.9661449471055 269.54301856159594 L 844.4765131617864 269.76563525690585 L 843.9842825544737 269.9320664961871 L 843.491018869443 270.04488982770744 L 842.9982878509702 270.10668279973476 L 842.5076552433311 270.12002296053674 L 842.0206867908016 270.0874878583813 L 841.5389482376576 270.0116550415361 L 841.0640053281747 269.895102058269 L 840.5974238066291 269.74040645684784 L 840.1407694172964 269.5501457855404 L 839.6956079044525 269.3268975926144 L 839.2635050123732 269.0732394263377 L 838.8460264853345 268.791748834978 L 838.4447380676122 268.4850033668033 L 838.061205503482 268.1555805700812 L 837.6969945372199 267.8060579930796 L 837.3536709131016 267.4390131840663 L 837.0328003754032 267.05702369130904 L 836.7359486684003 266.6626670630756 L 836.4646815363687 266.25852084763386 L 836.2205647235846 265.84716259325154 L 836.0051639743235 265.4311698481965 L 836.0051639743235 265.4311698481965"/><path fill="none" stroke="#840000" stroke-linecap="round" stroke-width=".979" d="M 848.6079588837608 258.27259911888217 L 848.6079588837608 258.27259911888217 L 848.1954844683227 257.5077070377022 L 847.767885276684 256.8196207986933 L 847.3267270531205 256.2057628535876 L 846.8735755419083 255.66355565411737 L 846.4099964873229 255.19042165201478 L 845.9375556336405 254.78378329901207 L 845.4578187251367 254.4410630468414 L 844.9723515060873 254.15968334723502 L 844.4827197207684 253.93706665192508 L 843.9904891134556 253.77063541264386 L 843.4972254284248 253.65781208112347 L 843.004494409952 253.59601910909618 L 842.5138618023129 253.58267894829416 L 842.0268933497834 253.61521405044965 L 841.5451547966394 253.69104686729483 L 841.0702118871566 253.8075998505619 L 840.6036303656109 253.96229545198307 L 840.1469759762782 254.15255612329057 L 839.7018144634343 254.37580431621654 L 839.2697115713552 254.62946248249327 L 838.8522330443164 254.91095307385288 L 838.450944626594 255.21769854202762 L 838.0674120624639 255.5471213387497 L 837.7032010962017 255.8966439157513 L 837.3598774720836 256.2636887247646 L 837.039006934385 256.6456782175219 L 836.7421552273821 257.0400348457553 L 836.4708880953507 257.44418106119707 L 836.2267712825665 257.8555393155794 L 836.0113705333054 258.27153206063446 L 836.0113705333054 258.27153206063446"/><text x="833.518" y="262.88" fill="#0F0F0F" dominant-baseline="middle" font-family="sans-serif" font-size="8.811" text-anchor="end">JP3</text></g><g data-circuit-json-type="schematic_component" data-schematic-component-id="schematic_component_9"><rect width="12.603" height="43.133" x="982.848" y="117.946" fill="transparent" class="component-overlay"/><path fill="none" stroke="#840000" stroke-linecap="round" stroke-width=".979" d="M 989.1738668621175 148.36884973081072 L 989.1738668621175 161.07854625551968"/><path fill="none" stroke="#840000" stroke-linecap="round" stroke-width=".979" d="M 989.0899363677465 117.94604013709909 L 989.0899363677465 130.58759177683496"/><path fill="none" stroke="#840000" stroke-linecap="round" stroke-width=".979" d="M 989.0903181592297 136.22029858055072 L 989.0903181592297 142.73685756243515"/><path fill="none" stroke="#840000" stroke-linecap="round" stroke-width=".979" d="M 982.950680371667 136.12728340678672 L 995.2848262355832 136.12728340678672"/><path fill="none" stroke="#840000" stroke-linecap="round" stroke-width=".979" d="M 982.9459667152794 142.83363680864167 L 995.2801125791956 142.83363680864167"/><path fill="none" stroke="#840000" stroke-linecap="round" stroke-width=".979" d="M 995.4446304450789 143.06103768969876 L 995.4446304450789 143.06103768969876 L 995.0321560296409 143.82592977087873 L 994.6045568380022 144.51401600988765 L 994.1633986144387 145.12787395499333 L 993.7102471032265 145.67008115446356 L 993.2466680486411 146.14321515656616 L 992.7742271949586 146.54985350956886 L 992.2944902864548 146.89257376173953 L 991.8090230674055 147.17395346134592 L 991.3193912820865 147.39657015665586 L 990.8271606747737 147.5630013959371 L 990.333896989743 147.67582472745747 L 989.8411659712702 147.73761769948476 L 989.3505333636311 147.75095786028677 L 988.8635649111017 147.71842275813128 L 988.3818263579576 147.6425899412861 L 987.9068834484748 147.52603695801903 L 987.4403019269291 147.37134135659787 L 986.9836475375964 147.18108068529037 L 986.5384860247525 146.9578324923644 L 986.1063831326733 146.70417432608767 L 985.6889046056345 146.42268373472805 L 985.2876161879122 146.11593826655331 L 984.9040836237821 145.78651546983124 L 984.5398726575199 145.43699289282964 L 984.1965490334017 145.06994808381629 L 983.8756784957033 144.68795859105902 L 983.5788267887003 144.29360196282562 L 983.3075596566688 143.88945574738383 L 983.0634428438847 143.47809749300154 L 982.8480420946236 143.06210474794648 L 982.8480420946236 143.06210474794648"/><path fill="none" stroke="#840000" stroke-linecap="round" stroke-width=".979" d="M 995.4508370040609 135.90353401863217 L 995.4508370040609 135.90353401863217 L 995.0383625886227 135.1386419374522 L 994.610763396984 134.45055569844328 L 994.1696051734206 133.8366977533376 L 993.7164536622083 133.29449055386738 L 993.252874607623 132.82135655176478 L 992.7804337539405 132.41471819876207 L 992.3006968454367 132.0719979465914 L 991.8152296263873 131.79061824698502 L 991.3255978410684 131.56800155167508 L 990.8333672337557 131.40157031239386 L 990.3401035487249 131.28874698087347 L 989.8473725302521 131.22695400884618 L 989.356739922613 131.21361384804416 L 988.8697714700835 131.24614895019965 L 988.3880329169394 131.32198176704483 L 987.9130900074566 131.4385347503119 L 987.446508485911 131.59323035173307 L 986.9898540965783 131.78349102304057 L 986.5446925837343 132.00673921596655 L 986.1125896916552 132.26039738224327 L 985.6951111646165 132.54188797360288 L 985.2938227468941 132.84863344177762 L 984.9102901827639 133.1780562384997 L 984.5460792165018 133.5275788155013 L 984.2027555923836 133.89462362451465 L 983.8818850546851 134.27661311727192 L 983.5850333476822 134.67096974550535 L 983.3137662156507 135.0751159609471 L 983.0696494028665 135.48647421532942 L 982.8542486536054 135.9024669603845 L 982.8542486536054 135.9024669603845"/><text x="980.361" y="140.511" fill="#0F0F0F" dominant-baseline="middle" font-family="sans-serif" font-size="8.811" text-anchor="end">JP2</text></g><g data-circuit-json-type="schematic_component" data-schematic-component-id="schematic_component_10"><rect width="12.951" height="51.803" x="982.627" y="177.24" fill="transparent" class="component-overlay"/><path fill="none" stroke="#840000" stroke-linecap="round" stroke-width=".979" d="M 989.102816935539 229.04311306897773 L 989.102816935539 216.09238864412217"/><path fill="none" stroke="#840000" stroke-linecap="round" stroke-width=".979" d="M 989.102816935539 190.19093979441095 L 989.102816935539 177.24021047479278"/><path fill="none" stroke="#840000" stroke-linecap="round" stroke-width=".979" d="M 982.6274522757299 203.14166911402918 L 982.6274522757299 190.19094468917362 L 995.578181595348 190.19094468917362 L 995.578181595348 216.09239843364742 L 982.6274522757299 216.09239843364742 L 982.6274522757299 203.14166911402927"/><text x="1002.594" y="196.158" fill="#0F0F0F" dominant-baseline="middle" font-family="sans-serif" font-size="8.811" text-anchor="start">R4</text><text x="1002.594" y="211.821" fill="#0F0F0F" dominant-baseline="middle" font-family="sans-serif" font-size="8.811" text-anchor="start">10kΩ</text></g><g data-circuit-json-type="schematic_component" data-schematic-component-id="schematic_component_11"><rect width="12.603" height="43.133" x="982.848" y="441" fill="transparent" class="component-overlay"/><path fill="none" stroke="#840000" stroke-linecap="round" stroke-width=".979" d="M 989.1738668621175 471.4231815954707 L 989.1738668621175 484.1328781201796"/><path fill="none" stroke="#840000" stroke-linecap="round" stroke-width=".979" d="M 989.0899363677465 441.00037200175905 L 989.0899363677465 453.64192364149494"/><path fill="none" stroke="#840000" stroke-linecap="round" stroke-width=".979" d="M 989.0903181592297 459.2746304452107 L 989.0903181592297 465.7911894270951"/><path fill="none" stroke="#840000" stroke-linecap="round" stroke-width=".979" d="M 982.950680371667 459.1816152714467 L 995.2848262355832 459.1816152714467"/><path fill="none" stroke="#840000" stroke-linecap="round" stroke-width=".979" d="M 982.9459667152794 465.8879686733016 L 995.2801125791956 465.8879686733016"/><path fill="none" stroke="#840000" stroke-linecap="round" stroke-width=".979" d="M 995.4446304450789 466.1153695543587 L 995.4446304450789 466.1153695543587 L 995.0321560296409 466.88026163553866 L 994.6045568380022 467.5683478745476 L 994.1633986144387 468.1822058196533 L 993.7102471032265 468.7244130191235 L 993.2466680486411 469.1975470212261 L 992.7742271949586 469.6041853742288 L 992.2944902864548 469.9469056263995 L 991.8090230674055 470.2282853260059 L 991.3193912820865 470.4509020213158 L 990.8271606747737 470.61733326059704 L 990.333896989743 470.7301565921174 L 989.8411659712702 470.7919495641447 L 989.3505333636311 470.8052897249467 L 988.8635649111017 470.77275462279124 L 988.3818263579576 470.69692180594603 L 987.9068834484748 470.58036882267896 L 987.4403019269291 470.4256732212578 L 986.9836475375964 470.23541254995035 L 986.5384860247525 470.01216435702435 L 986.1063831326733 469.75850619074765 L 985.6889046056345 469.477015599388 L 985.2876161879122 469.1702701312133 L 984.9040836237821 468.8408473344912 L 984.5398726575199 468.49132475748956 L 984.1965490334017 468.12427994847627 L 983.8756784957033 467.742290455719 L 983.5788267887003 467.3479338274856 L 983.3075596566688 466.9437876120438 L 983.0634428438847 466.5324293576615 L 982.8480420946236 466.11643661260644 L 982.8480420946236 466.11643661260644"/><path fill="none" stroke="#840000" stroke-linecap="round" stroke-width=".979" d="M 995.4508370040609 458.95786588329213 L 995.4508370040609 458.95786588329213 L 995.0383625886227 458.19297380211214 L 994.610763396984 457.50488756310324 L 994.1696051734206 456.89102961799756 L 993.7164536622083 456.34882241852733 L 993.252874607623 455.87568841642474 L 992.7804337539405 455.469050063422 L 992.3006968454366 455.12632981125137 L 991.8152296263873 454.84495011164495 L 991.3255978410684 454.62233341633504 L 990.8333672337557 454.4559021770538 L 990.3401035487249 454.34307884553346 L 989.8473725302521 454.28128587350614 L 989.356739922613 454.26794571270415 L 988.8697714700835 454.3004808148596 L 988.3880329169394 454.3763136317048 L 987.9130900074566 454.4928666149719 L 987.446508485911 454.64756221639306 L 986.9898540965783 454.8378228877005 L 986.5446925837343 455.0610710806265 L 986.1125896916552 455.3147292469032 L 985.6951111646165 455.59621983826287 L 985.2938227468941 455.9029653064376 L 984.9102901827639 456.2323881031597 L 984.5460792165018 456.5819106801613 L 984.2027555923836 456.9489554891746 L 983.8818850546851 457.33094498193185 L 983.5850333476822 457.7253016101653 L 983.3137662156507 458.12944782560703 L 983.0696494028665 458.54080607998935 L 982.8542486536054 458.9567988250444 L 982.8542486536054 458.9567988250444"/><text x="980.361" y="463.565" fill="#0F0F0F" dominant-baseline="middle" font-family="sans-serif" font-size="8.811" text-anchor="end">JP4</text></g><g data-circuit-json-type="schematic_component" data-schematic-component-id="schematic_component_12"><rect width="12.951" height="51.803" x="982.627" y="500.295" fill="transparent" class="component-overlay"/><path fill="none" stroke="#840000" stroke-linecap="round" stroke-width=".979" d="M 989.102816935539 552.0974449336377 L 989.102816935539 539.1467205087822"/><path fill="none" stroke="#840000" stroke-linecap="round" stroke-width=".979" d="M 989.102816935539 513.245271659071 L 989.102816935539 500.29454233945285"/><path fill="none" stroke="#840000" stroke-linecap="round" stroke-width=".979" d="M 982.6274522757299 526.1960009786892 L 982.6274522757299 513.2452765538336 L 995.578181595348 513.2452765538336 L 995.578181595348 539.1467302983074 L 982.6274522757299 539.1467302983074 L 982.6274522757299 526.1960009786893"/><text x="1002.594" y="519.212" fill="#0F0F0F" dominant-baseline="middle" font-family="sans-serif" font-size="8.811" text-anchor="start">R5</text><text x="1002.594" y="534.875" fill="#0F0F0F" dominant-baseline="middle" font-family="sans-serif" font-size="8.811" text-anchor="start">10kΩ</text></g><g data-circuit-json-type="schematic_component" data-schematic-component-id="schematic_component_13"><rect width="68.527" height="48.948" x="661.185" y="447.871" fill="#FFFFC2" stroke="#840000" stroke-width=".979" class="component chip"/><rect width="68.527" height="48.948" x="661.185" y="447.871" fill="transparent" class="component-overlay"/><text x="661.185" y="441.508" fill="#006464" dominant-baseline="middle" font-family="sans-serif" font-size="8.811" text-anchor="start" transform="rotate(0, 661.1845325500799, 441.507586881837)">J2</text><line x1="748.311" x2="729.711" y1="487.029" y2="487.029" stroke-width=".979" class="component-pin"/><text x="739.501" y="486.05" fill="#A90000" class="pin-number" style="font-family:sans-serif" dominant-baseline="auto" font-size="7.342" text-anchor="middle">1</text><text x="724.816" y="487.029" fill="#A90000" class="pin-number" style="font-family:sans-serif" dominant-baseline="middle" font-size="7.342" text-anchor="end">GND</text><line x1="748.311" x2="729.711" y1="477.239" y2="477.239" stroke-width=".979" class="component-pin"/><text x="739.501" y="476.26" fill="#A90000" class="pin-number" style="font-family:sans-serif" dominant-baseline="auto" font-size="7.342" text-anchor="middle">2</text><text x="724.816" y="477.239" fill="#A90000" class="pin-number" style="font-family:sans-serif" dominant-baseline="middle" font-size="7.342" text-anchor="end">VCC</text><line x1="748.311" x2="729.711" y1="467.45" y2="467.45" stroke-width=".979" class="component-pin"/><text x="739.501" y="466.471" fill="#A90000" class="pin-number" style="font-family:sans-serif" dominant-baseline="auto" font-size="7.342" text-anchor="middle">3</text><text x="724.816" y="467.45" fill="#A90000" class="pin-number" style="font-family:sans-serif" dominant-baseline="middle" font-size="7.342" text-anchor="end">SDA</text><line x1="748.311" x2="729.711" y1="457.66" y2="457.66" stroke-width=".979" class="component-pin"/><text x="739.501" y="456.681" fill="#A90000" class="pin-number" style="font-family:sans-serif" dominant-baseline="auto" font-size="7.342" text-anchor="middle">4</text><text x="724.816" y="457.66" fill="#A90000" class="pin-number" style="font-family:sans-serif" dominant-baseline="middle" font-size="7.342" text-anchor="end">SCL</text></g><g data-circuit-json-type="schematic_component" data-schematic-component-id="schematic_component_14"><rect width="68.527" height="48.948" x="489.868" y="447.871" fill="#FFFFC2" stroke="#840000" stroke-width=".979" class="component chip"/><rect width="68.527" height="48.948" x="489.868" y="447.871" fill="transparent" class="component-overlay"/><text x="489.868" y="441.508" fill="#006464" dominant-baseline="middle" font-family="sans-serif" font-size="8.811" text-anchor="start" transform="rotate(0, 489.86784140973, 441.507586881837)">J1</text><line x1="576.995" x2="558.395" y1="487.029" y2="487.029" stroke-width=".979" class="component-pin"/><text x="568.184" y="486.05" fill="#A90000" class="pin-number" style="font-family:sans-serif" dominant-baseline="auto" font-size="7.342" text-anchor="middle">1</text><text x="553.5" y="487.029" fill="#A90000" class="pin-number" style="font-family:sans-serif" dominant-baseline="middle" font-size="7.342" text-anchor="end">GND</text><line x1="576.995" x2="558.395" y1="477.239" y2="477.239" stroke-width=".979" class="component-pin"/><text x="568.184" y="476.26" fill="#A90000" class="pin-number" style="font-family:sans-serif" dominant-baseline="auto" font-size="7.342" text-anchor="middle">2</text><text x="553.5" y="477.239" fill="#A90000" class="pin-number" style="font-family:sans-serif" dominant-baseline="middle" font-size="7.342" text-anchor="end">VCC</text><line x1="576.995" x2="558.395" y1="467.45" y2="467.45" stroke-width=".979" class="component-pin"/><text x="568.184" y="466.471" fill="#A90000" class="pin-number" style="font-family:sans-serif" dominant-baseline="auto" font-size="7.342" text-anchor="middle">3</text><text x="553.5" y="467.45" fill="#A90000" class="pin-number" style="font-family:sans-serif" dominant-baseline="middle" font-size="7.342" text-anchor="end">SDA</text><line x1="576.995" x2="558.395" y1="457.66" y2="457.66" stroke-width=".979" class="component-pin"/><text x="568.184" y="456.681" fill="#A90000" class="pin-number" style="font-family:sans-serif" dominant-baseline="auto" font-size="7.342" text-anchor="middle">4</text><text x="553.5" y="457.66" fill="#A90000" class="pin-number" style="font-family:sans-serif" dominant-baseline="middle" font-size="7.342" text-anchor="end">SCL</text></g><g data-circuit-json-type="schematic_component" data-schematic-component-id="schematic_component_15"><rect width="19.579" height="68.527" x="343.025" y="438.081" fill="#FFFFC2" stroke="#840000" stroke-width=".979" class="component chip"/><rect width="19.579" height="68.527" x="343.025" y="438.081" fill="transparent" class="component-overlay"/><text x="343.025" y="431.718" fill="#006464" dominant-baseline="middle" font-family="sans-serif" font-size="8.811" text-anchor="start" transform="rotate(0, 343.02496328942993, 431.71806167381703)">J3</text><line x1="381.204" x2="362.604" y1="496.818" y2="496.818" stroke-width=".979" class="component-pin"/><text x="372.394" y="495.839" fill="#A90000" class="pin-number" style="font-family:sans-serif" dominant-baseline="auto" font-size="7.342" text-anchor="middle">1</text><line x1="381.204" x2="362.604" y1="487.029" y2="487.029" stroke-width=".979" class="component-pin"/><text x="372.394" y="486.05" fill="#A90000" class="pin-number" style="font-family:sans-serif" dominant-baseline="auto" font-size="7.342" text-anchor="middle">2</text><line x1="381.204" x2="362.604" y1="477.239" y2="477.239" stroke-width=".979" class="component-pin"/><text x="372.394" y="476.26" fill="#A90000" class="pin-number" style="font-family:sans-serif" dominant-baseline="auto" font-size="7.342" text-anchor="middle">3</text><line x1="381.204" x2="362.604" y1="467.45" y2="467.45" stroke-width=".979" class="component-pin"/><text x="372.394" y="466.471" fill="#A90000" class="pin-number" style="font-family:sans-serif" dominant-baseline="auto" font-size="7.342" text-anchor="middle">4</text><line x1="381.204" x2="362.604" y1="457.66" y2="457.66" stroke-width=".979" class="component-pin"/><text x="372.394" y="456.681" fill="#A90000" class="pin-number" style="font-family:sans-serif" dominant-baseline="auto" font-size="7.342" text-anchor="middle">5</text><line x1="381.204" x2="362.604" y1="447.871" y2="447.871" stroke-width=".979" class="component-pin"/><text x="372.394" y="446.892" fill="#A90000" class="pin-number" style="font-family:sans-serif" dominant-baseline="auto" font-size="7.342" text-anchor="middle">6</text></g><g class="trace" data-circuit-json-type="schematic_trace" data-schematic-trace-id="schematic_trace_0"><path fill="none" stroke="#009600" stroke-linecap="round" stroke-linejoin="round" stroke-width="7.832" d="M 369.946157611485 167.6456191874775 L 352.81448849744993 167.6456191874775 L 352.81448849744993 178.6588350465" class="trace-invisible-hover-outline" opacity="0"/><path fill="none" stroke="#009600" stroke-linecap="round" stroke-linejoin="round" stroke-width=".979" d="M 369.946157611485 167.6456191874775 L 352.81448849744993 167.6456191874775 L 352.81448849744993 178.6588350465"/></g><g class="trace" data-circuit-json-type="schematic_trace" data-schematic-trace-id="schematic_trace_1"><path fill="none" stroke="#009600" stroke-linecap="round" stroke-linejoin="round" stroke-width="7.832" d="M 369.946157611485 140.72442486542252 L 352.81448849744993 140.72442486542252 L 352.81448849744993 129.7112090064" class="trace-invisible-hover-outline" opacity="0"/><path fill="none" stroke="#009600" stroke-linecap="round" stroke-linejoin="round" stroke-width=".979" d="M 369.946157611485 140.72442486542252 L 352.81448849744993 140.72442486542252 L 352.81448849744993 129.7112090064"/></g><g class="trace" data-circuit-json-type="schematic_trace" data-schematic-trace-id="schematic_trace_2"><path fill="none" stroke="#009600" stroke-linecap="round" stroke-linejoin="round" stroke-width="7.832" d="M 612.2502814487954 151.67446402351504 L 618.464817670034 151.67446402351504 L 618.464817670034 134.67757564858908 L 624.6793538912725 134.67757564858908" class="trace-invisible-hover-outline" opacity="0"/><path fill="none" stroke="#009600" stroke-linecap="round" stroke-linejoin="round" stroke-width=".979" d="M 612.2502814487954 151.67446402351504 L 618.464817670034 151.67446402351504 L 618.464817670034 134.67757564858908 L 624.6793538912725 134.67757564858908"/></g><g class="trace" data-circuit-json-type="schematic_trace" data-schematic-trace-id="schematic_trace_3"><path fill="none" stroke="#009600" stroke-linecap="round" stroke-linejoin="round" stroke-width="7.832" d="M 680.7769579049354 151.67446402351504 L 674.5490467448814 151.67446402351504 L 674.5490467448814 134.68366473326847 L 668.3211355848273 134.68366473326847" class="trace-invisible-hover-outline" opacity="0"/><path fill="none" stroke="#009600" stroke-linecap="round" stroke-linejoin="round" stroke-width=".979" d="M 680.7769579049354 151.67446402351504 L 674.5490467448814 151.67446402351504 L 674.5490467448814 134.68366473326847 L 668.3211355848273 134.68366473326847"/></g><g class="trace" data-circuit-json-type="schematic_trace" data-schematic-trace-id="schematic_trace_4"><path fill="none" stroke="#009600" stroke-linecap="round" stroke-linejoin="round" stroke-width="7.832" d="M 612.2235315711646 205.643206069485 L 626.9211943220099 205.643206069485 L 626.9211943220099 205.58002936855502" class="trace-invisible-hover-outline" opacity="0"/><path fill="none" stroke="#009600" stroke-linecap="round" stroke-linejoin="round" stroke-width=".979" d="M 612.2235315711646 205.643206069485 L 626.9211943220099 205.643206069485 L 626.9211943220099 205.58002936855502"/></g><g class="trace" data-circuit-json-type="schematic_trace" data-schematic-trace-id="schematic_trace_5"><path fill="none" stroke="#009600" stroke-linecap="round" stroke-linejoin="round" stroke-width="7.832" d="M 680.7502080273046 205.643206069485 L 695.44787077815 205.643206069485 L 695.44787077815 205.58002936855502" class="trace-invisible-hover-outline" opacity="0"/><path fill="none" stroke="#009600" stroke-linecap="round" stroke-linejoin="round" stroke-width=".979" d="M 680.7502080273046 205.643206069485 L 695.44787077815 205.643206069485 L 695.44787077815 205.58002936855502"/></g><g class="trace" data-circuit-json-type="schematic_trace" data-schematic-trace-id="schematic_trace_6"><path fill="none" stroke="#009600" stroke-linecap="round" stroke-linejoin="round" stroke-width="7.832" d="M 646.6712090062829 117.34708617234183 L 646.50024473805 117.34708617234183 L 646.50024473805 105.23739598635001" class="trace-invisible-hover-outline" opacity="0"/><path fill="none" stroke="#009600" stroke-linecap="round" stroke-linejoin="round" stroke-width=".979" d="M 646.6712090062829 117.34708617234183 L 646.50024473805 117.34708617234183 L 646.50024473805 105.23739598635001"/></g><g class="trace" data-circuit-json-type="schematic_trace" data-schematic-trace-id="schematic_trace_7"><path fill="none" stroke="#009600" stroke-linecap="round" stroke-linejoin="round" stroke-width="7.832" d="M 842.2773739596346 166.48510523740498 L 842.3925513947788 166.48510523740498 L 842.3925513947788 176.8864757709262 L 842.5077288299232 176.8864757709262" class="trace-invisible-hover-outline" opacity="0"/><path fill="none" stroke="#009600" stroke-linecap="round" stroke-linejoin="round" stroke-width=".979" d="M 842.2773739596346 166.48510523740498 L 842.3925513947788 166.48510523740498 L 842.3925513947788 176.8864757709262 L 842.5077288299232 176.8864757709262"/></g><g class="trace" data-circuit-json-type="schematic_trace" data-schematic-trace-id="schematic_trace_8"><path fill="none" stroke="#009600" stroke-linecap="round" stroke-linejoin="round" stroke-width="7.832" d="M 842.3041238372654 112.51636319143505 L 842.2907488984499 112.51636319143505 L 842.2907488984499 105.23739598635001" class="trace-invisible-hover-outline" opacity="0"/><path fill="none" stroke="#009600" stroke-linecap="round" stroke-linejoin="round" stroke-width=".979" d="M 842.3041238372654 112.51636319143505 L 842.2907488984499 112.51636319143505 L 842.2907488984499 105.23739598635001"/></g><g class="trace" data-circuit-json-type="schematic_trace" data-schematic-trace-id="schematic_trace_9"><path fill="none" stroke="#009600" stroke-linecap="round" stroke-linejoin="round" stroke-width="7.832" d="M 842.2937934407896 240.0489084678926 L 842.411860009561 240.0489084678926 L 842.411860009561 229.3788203621738 L 842.5299265783325 229.3788203621738" class="trace-invisible-hover-outline" opacity="0"/><path fill="none" stroke="#009600" stroke-linecap="round" stroke-linejoin="round" stroke-width=".979" d="M 842.2937934407896 240.0489084678926 L 842.411860009561 240.0489084678926 L 842.411860009561 229.3788203621738 L 842.5299265783325 229.3788203621738"/></g><g class="trace" data-circuit-json-type="schematic_trace" data-schematic-trace-id="schematic_trace_10"><path fill="none" stroke="#009600" stroke-linecap="round" stroke-linejoin="round" stroke-width="7.832" d="M 842.2877043561102 283.69069016144744 L 842.2907488984499 283.69069016144744 L 842.2907488984499 291.23837493873" class="trace-invisible-hover-outline" opacity="0"/><path fill="none" stroke="#009600" stroke-linecap="round" stroke-linejoin="round" stroke-width=".979" d="M 842.2877043561102 283.69069016144744 L 842.2907488984499 283.69069016144744 L 842.2907488984499 291.23837493873"/></g><g class="trace" data-circuit-json-type="schematic_trace" data-schematic-trace-id="schematic_trace_11"><path fill="none" stroke="#009600" stroke-linecap="round" stroke-linejoin="round" stroke-width="7.832" d="M 989.1366715610897 117.6798433676426 L 989.13362701875 117.6798433676426 L 989.13362701875 105.23739598635001" class="trace-invisible-hover-outline" opacity="0"/><path fill="none" stroke="#009600" stroke-linecap="round" stroke-linejoin="round" stroke-width=".979" d="M 989.1366715610897 117.6798433676426 L 989.13362701875 117.6798433676426 L 989.13362701875 105.23739598635001"/></g><g class="trace" data-circuit-json-type="schematic_trace" data-schematic-trace-id="schematic_trace_12"><path fill="none" stroke="#009600" stroke-linecap="round" stroke-linejoin="round" stroke-width="7.832" d="M 989.1305824764102 161.32162506119744 L 989.1387922169877 161.32162506119744 L 989.1387922169877 176.14827704356503 L 989.1470019575654 176.14827704356503" class="trace-invisible-hover-outline" opacity="0"/><path fill="none" stroke="#009600" stroke-linecap="round" stroke-linejoin="round" stroke-width=".979" d="M 989.1305824764102 161.32162506119744 L 989.1387922169877 161.32162506119744 L 989.1387922169877 176.14827704356503 L 989.1470019575654 176.14827704356503"/></g><g class="trace" data-circuit-json-type="schematic_trace" data-schematic-trace-id="schematic_trace_13"><path fill="none" stroke="#009600" stroke-linecap="round" stroke-linejoin="round" stroke-width="7.832" d="M 989.1202520799345 230.11701908953498 L 1013.6074400388 230.11701908953498 L 1013.6074400388 249.632892804645" class="trace-invisible-hover-outline" opacity="0"/><path fill="none" stroke="#009600" stroke-linecap="round" stroke-linejoin="round" stroke-width=".979" d="M 989.1202520799345 230.11701908953498 L 1013.6074400388 230.11701908953498 L 1013.6074400388 249.632892804645"/></g><g class="trace" data-circuit-json-type="schematic_trace" data-schematic-trace-id="schematic_trace_14"><path fill="none" stroke="#009600" stroke-linecap="round" stroke-linejoin="round" stroke-width="7.832" d="M 989.1366715610897 440.7341752323026 L 989.13362701875 440.7341752323026 L 989.13362701875 423.396965247" class="trace-invisible-hover-outline" opacity="0"/><path fill="none" stroke="#009600" stroke-linecap="round" stroke-linejoin="round" stroke-width=".979" d="M 989.1366715610897 440.7341752323026 L 989.13362701875 440.7341752323026 L 989.13362701875 423.396965247"/></g><g class="trace" data-circuit-json-type="schematic_trace" data-schematic-trace-id="schematic_trace_15"><path fill="none" stroke="#009600" stroke-linecap="round" stroke-linejoin="round" stroke-width="7.832" d="M 989.1305824764102 484.3759569258574 L 989.1387922169877 484.3759569258574 L 989.1387922169877 499.20260890822505 L 989.1470019575654 499.20260890822505" class="trace-invisible-hover-outline" opacity="0"/><path fill="none" stroke="#009600" stroke-linecap="round" stroke-linejoin="round" stroke-width=".979" d="M 989.1305824764102 484.3759569258574 L 989.1387922169877 484.3759569258574 L 989.1387922169877 499.20260890822505 L 989.1470019575654 499.20260890822505"/></g><g class="trace" data-circuit-json-type="schematic_trace" data-schematic-trace-id="schematic_trace_16"><path fill="none" stroke="#009600" stroke-linecap="round" stroke-linejoin="round" stroke-width="7.832" d="M 989.1202520799345 553.1713509541948 L 1013.6074400388 553.1713509541948 L 1013.6074400388 570.2398433673" class="trace-invisible-hover-outline" opacity="0"/><path fill="none" stroke="#009600" stroke-linecap="round" stroke-linejoin="round" stroke-width=".979" d="M 989.1202520799345 553.1713509541948 L 1013.6074400388 553.1713509541948 L 1013.6074400388 570.2398433673"/></g><g class="trace" data-circuit-json-type="schematic_trace" data-schematic-trace-id="schematic_trace_17"><path fill="none" stroke="#009600" stroke-linecap="round" stroke-linejoin="round" stroke-width="7.832" d="M 749.29025942226 457.66030347507 L 768.8693098383 457.66030347507 L 768.8693098383 457.6113558490299" class="trace-invisible-hover-outline" opacity="0"/><path fill="none" stroke="#009600" stroke-linecap="round" stroke-linejoin="round" stroke-width=".979" d="M 749.29025942226 457.66030347507 L 768.8693098383 457.66030347507 L 768.8693098383 457.6113558490299"/></g><g class="trace" data-circuit-json-type="schematic_trace" data-schematic-trace-id="schematic_trace_18"><path fill="none" stroke="#009600" stroke-linecap="round" stroke-linejoin="round" stroke-width="7.832" d="M 749.29025942226 467.44982868309 L 768.8693098383 467.44982868309" class="trace-invisible-hover-outline" opacity="0"/><path fill="none" stroke="#009600" stroke-linecap="round" stroke-linejoin="round" stroke-width=".979" d="M 749.29025942226 467.44982868309 L 768.8693098383 467.44982868309"/></g><g class="trace" data-circuit-json-type="schematic_trace" data-schematic-trace-id="schematic_trace_19"><path fill="none" stroke="#009600" stroke-linecap="round" stroke-linejoin="round" stroke-width="7.832" d="M 749.29025942226 477.23935389111 L 759.07978463028 477.23935389111 L 759.07978463028 442.97601566304" class="trace-invisible-hover-outline" opacity="0"/><path fill="none" stroke="#009600" stroke-linecap="round" stroke-linejoin="round" stroke-width=".979" d="M 749.29025942226 477.23935389111 L 759.07978463028 477.23935389111 L 759.07978463028 442.97601566304"/></g><g class="trace" data-circuit-json-type="schematic_trace" data-schematic-trace-id="schematic_trace_20"><path fill="none" stroke="#009600" stroke-linecap="round" stroke-linejoin="round" stroke-width="7.832" d="M 749.29025942226 487.02887909913 L 759.07978463028 487.02887909913 L 759.07978463028 501.71316691116" class="trace-invisible-hover-outline" opacity="0"/><path fill="none" stroke="#009600" stroke-linecap="round" stroke-linejoin="round" stroke-width=".979" d="M 749.29025942226 487.02887909913 L 759.07978463028 487.02887909913 L 759.07978463028 501.71316691116"/></g><g class="trace" data-circuit-json-type="schematic_trace" data-schematic-trace-id="schematic_trace_21"><path fill="none" stroke="#009600" stroke-linecap="round" stroke-linejoin="round" stroke-width="7.832" d="M 577.9735682819099 457.66030347507 L 597.5526186979499 457.66030347507 L 597.5526186979499 457.6113558490299" class="trace-invisible-hover-outline" opacity="0"/><path fill="none" stroke="#009600" stroke-linecap="round" stroke-linejoin="round" stroke-width=".979" d="M 577.9735682819099 457.66030347507 L 597.5526186979499 457.66030347507 L 597.5526186979499 457.6113558490299"/></g><g class="trace" data-circuit-json-type="schematic_trace" data-schematic-trace-id="schematic_trace_22"><path fill="none" stroke="#009600" stroke-linecap="round" stroke-linejoin="round" stroke-width="7.832" d="M 577.9735682819099 467.44982868309 L 597.5526186979499 467.44982868309" class="trace-invisible-hover-outline" opacity="0"/><path fill="none" stroke="#009600" stroke-linecap="round" stroke-linejoin="round" stroke-width=".979" d="M 577.9735682819099 467.44982868309 L 597.5526186979499 467.44982868309"/></g><g class="trace" data-circuit-json-type="schematic_trace" data-schematic-trace-id="schematic_trace_23"><path fill="none" stroke="#009600" stroke-linecap="round" stroke-linejoin="round" stroke-width="7.832" d="M 577.9735682819099 477.23935389111 L 587.7630934899299 477.23935389111 L 587.7630934899299 442.97601566304" class="trace-invisible-hover-outline" opacity="0"/><path fill="none" stroke="#009600" stroke-linecap="round" stroke-linejoin="round" stroke-width=".979" d="M 577.9735682819099 477.23935389111 L 587.7630934899299 477.23935389111 L 587.7630934899299 442.97601566304"/></g><g class="trace" data-circuit-json-type="schematic_trace" data-schematic-trace-id="schematic_trace_24"><path fill="none" stroke="#009600" stroke-linecap="round" stroke-linejoin="round" stroke-width="7.832" d="M 577.9735682819099 487.02887909913 L 587.7630934899299 487.02887909913 L 587.7630934899299 501.71316691116" class="trace-invisible-hover-outline" opacity="0"/><path fill="none" stroke="#009600" stroke-linecap="round" stroke-linejoin="round" stroke-width=".979" d="M 577.9735682819099 487.02887909913 L 587.7630934899299 487.02887909913 L 587.7630934899299 501.71316691116"/></g><g class="trace" data-circuit-json-type="schematic_trace" data-schematic-trace-id="schematic_trace_25"><path fill="none" stroke="#009600" stroke-linecap="round" stroke-linejoin="round" stroke-width="7.832" d="M 382.18306412151 447.87077826705 L 401.76211453754996 447.87077826705" class="trace-invisible-hover-outline" opacity="0"/><path fill="none" stroke="#009600" stroke-linecap="round" stroke-linejoin="round" stroke-width=".979" d="M 382.18306412151 447.87077826705 L 401.76211453754996 447.87077826705"/></g><g class="trace" data-circuit-json-type="schematic_trace" data-schematic-trace-id="schematic_trace_26"><path fill="none" stroke="#009600" stroke-linecap="round" stroke-linejoin="round" stroke-width="7.832" d="M 382.18306412151 457.66030347507 L 401.76211453754996 457.66030347507" class="trace-invisible-hover-outline" opacity="0"/><path fill="none" stroke="#009600" stroke-linecap="round" stroke-linejoin="round" stroke-width=".979" d="M 382.18306412151 457.66030347507 L 401.76211453754996 457.66030347507"/></g><g class="trace" data-circuit-json-type="schematic_trace" data-schematic-trace-id="schematic_trace_27"><path fill="none" stroke="#009600" stroke-linecap="round" stroke-linejoin="round" stroke-width="7.832" d="M 382.18306412151 467.44982868309 L 401.76211453754996 467.44982868309" class="trace-invisible-hover-outline" opacity="0"/><path fill="none" stroke="#009600" stroke-linecap="round" stroke-linejoin="round" stroke-width=".979" d="M 382.18306412151 467.44982868309 L 401.76211453754996 467.44982868309"/></g><g class="trace" data-circuit-json-type="schematic_trace" data-schematic-trace-id="schematic_trace_28"><path fill="none" stroke="#009600" stroke-linecap="round" stroke-linejoin="round" stroke-width="7.832" d="M 382.18306412151 477.23935389111 L 401.76211453754996 477.23935389111" class="trace-invisible-hover-outline" opacity="0"/><path fill="none" stroke="#009600" stroke-linecap="round" stroke-linejoin="round" stroke-width=".979" d="M 382.18306412151 477.23935389111 L 401.76211453754996 477.23935389111"/></g><g class="trace" data-circuit-json-type="schematic_trace" data-schematic-trace-id="schematic_trace_29"><path fill="none" stroke="#009600" stroke-linecap="round" stroke-linejoin="round" stroke-width="7.832" d="M 382.18306412151 487.02887909913 L 391.97258932952997 487.02887909913 L 391.97258932952997 442.97601566304" class="trace-invisible-hover-outline" opacity="0"/><path fill="none" stroke="#009600" stroke-linecap="round" stroke-linejoin="round" stroke-width=".979" d="M 382.18306412151 487.02887909913 L 391.97258932952997 487.02887909913 L 391.97258932952997 442.97601566304"/></g><g class="trace" data-circuit-json-type="schematic_trace" data-schematic-trace-id="schematic_trace_30"><path fill="none" stroke="#009600" stroke-linecap="round" stroke-linejoin="round" stroke-width="7.832" d="M 382.18306412151 496.81840430715 L 391.97258932952997 496.81840430715 L 391.97258932952997 501.71316691116" class="trace-invisible-hover-outline" opacity="0"/><path fill="none" stroke="#009600" stroke-linecap="round" stroke-linejoin="round" stroke-width=".979" d="M 382.18306412151 496.81840430715 L 391.97258932952997 496.81840430715 L 391.97258932952997 501.71316691116"/></g><rect width="21.993" height="23.663" x="341.545" y="178.606" fill="transparent" class="component-overlay"/><path fill="none" stroke="#840000" stroke-linecap="round" stroke-width=".979" d="M 352.7613215860452 178.60580029368555 L 352.7613215860452 194.74057268721225"/><path fill="none" stroke="#840000" stroke-linecap="round" stroke-width=".979" d="M 341.54478707797733 194.73896720507815 L 363.5379980422289 194.73896720507813"/><path fill="none" stroke="#840000" stroke-linecap="round" stroke-width=".979" d="M 344.29394028404477 198.50374449337684 L 360.7888448361614 198.50374449337684"/><path fill="none" stroke="#840000" stroke-linecap="round" stroke-width=".979" d="M 349.792241801417 202.2685217816755 L 355.2905433187893 202.2685217816755"/><text x="351.707" y="208.002" fill="#0F0F0F" dominant-baseline="hanging" font-family="sans-serif" font-size="8.811" text-anchor="middle">GND</text><rect width="9.069" height="20.047" x="348.243" y="108.933" fill="transparent" class="component-overlay"/><path fill="none" stroke="#840000" stroke-linecap="round" stroke-width=".979" d="M 352.70634361247704 108.93253059231881 L 348.2434899658822 118.28498776313897"/><path fill="none" stroke="#840000" stroke-linecap="round" stroke-width=".979" d="M 352.84962799818413 108.9374057758724 L 357.3124816447788 118.2898874205056"/><path fill="none" stroke="#840000" stroke-linecap="round" stroke-width=".979" d="M 352.75798825271187 109.17930983852521 L 352.75798825271187 128.97961331379167"/><text x="352.539" y="106.064" fill="#0F0F0F" dominant-baseline="ideographic" font-family="sans-serif" font-size="8.811" text-anchor="middle">V3_3</text><path fill="rgba(255, 255, 255, 0.6)" stroke="#840000" stroke-width=".979" d="M 626.9211943220099,205.58002936855502 L 629.5643661281753,200.29368575622422 L 652.4261706639713,200.29368575622422 L 652.4261706639713,210.8663729808858 L 629.5643661281753,210.8663729808858 Z" class="net-label"/><text x="631.326" y="205.58" fill="#840000" class="net-label-text" dominant-baseline="central" font-family="sans-serif" font-size="8.811" font-variant-numeric="tabular-nums" text-anchor="start">SDA</text><path fill="rgba(255, 255, 255, 0.6)" stroke="#840000" stroke-width=".979" d="M 695.44787077815,205.58002936855502 L 698.0910425843153,200.29368575622422 L 719.9738945993095,200.29368575622422 L 719.9738945993095,210.8663729808858 L 698.0910425843153,210.8663729808858 Z" class="net-label"/><text x="699.853" y="205.58" fill="#840000" class="net-label-text" dominant-baseline="central" font-family="sans-serif" font-size="8.811" font-variant-numeric="tabular-nums" text-anchor="start">SCL</text><rect width="9.069" height="20.047" x="641.929" y="84.459" fill="transparent" class="component-overlay"/><path fill="none" stroke="#840000" stroke-linecap="round" stroke-width=".979" d="M 646.3920998530771 84.4587175722688 L 641.9292462064823 93.81117474308896"/><path fill="none" stroke="#840000" stroke-linecap="round" stroke-width=".979" d="M 646.5353842387842 84.46359275582239 L 650.9982378853789 93.81607440045558"/><path fill="none" stroke="#840000" stroke-linecap="round" stroke-width=".979" d="M 646.4437444933119 84.7054968184752 L 646.4437444933119 104.50580029374167"/><text x="646.225" y="81.59" fill="#0F0F0F" dominant-baseline="ideographic" font-family="sans-serif" font-size="8.811" text-anchor="middle">V3_3</text><rect width="9.069" height="20.047" x="837.72" y="84.459" fill="transparent" class="component-overlay"/><path fill="none" stroke="#840000" stroke-linecap="round" stroke-width=".979" d="M 842.182604013477 84.4587175722688 L 837.7197503668822 93.81117474308896"/><path fill="none" stroke="#840000" stroke-linecap="round" stroke-width=".979" d="M 842.3258883991841 84.46359275582239 L 846.7887420457788 93.81607440045558"/><path fill="none" stroke="#840000" stroke-linecap="round" stroke-width=".979" d="M 842.2342486537118 84.7054968184752 L 842.2342486537118 104.50580029374167"/><text x="842.015" y="81.59" fill="#0F0F0F" dominant-baseline="ideographic" font-family="sans-serif" font-size="8.811" text-anchor="middle">V3_3</text><rect width="21.993" height="23.663" x="831.021" y="291.185" fill="transparent" class="component-overlay"/><path fill="none" stroke="#840000" stroke-linecap="round" stroke-width=".979" d="M 842.2375819870452 291.18534018591555 L 842.2375819870452 307.3201125794422"/><path fill="none" stroke="#840000" stroke-linecap="round" stroke-width=".979" d="M 831.0210474789773 307.3185070973081 L 853.0142584432289 307.3185070973081"/><path fill="none" stroke="#840000" stroke-linecap="round" stroke-width=".979" d="M 833.7702006850448 311.0832843856068 L 850.2651052371614 311.0832843856068"/><path fill="none" stroke="#840000" stroke-linecap="round" stroke-width=".979" d="M 839.268502202417 314.8480616739055 L 844.7668037197892 314.8480616739055"/><text x="841.183" y="320.581" fill="#0F0F0F" dominant-baseline="hanging" font-family="sans-serif" font-size="8.811" text-anchor="middle">GND</text><rect width="9.069" height="20.047" x="984.563" y="84.459" fill="transparent" class="component-overlay"/><path fill="none" stroke="#840000" stroke-linecap="round" stroke-width=".979" d="M 989.0254821337769 84.4587175722688 L 984.5626284871821 93.81117474308896"/><path fill="none" stroke="#840000" stroke-linecap="round" stroke-width=".979" d="M 989.168766519484 84.46359275582239 L 993.6316201660787 93.81607440045558"/><path fill="none" stroke="#840000" stroke-linecap="round" stroke-width=".979" d="M 989.0771267740117 84.7054968184752 L 989.0771267740117 104.50580029374167"/><text x="988.858" y="81.59" fill="#0F0F0F" dominant-baseline="ideographic" font-family="sans-serif" font-size="8.811" text-anchor="middle">V3_3</text><path fill="rgba(255, 255, 255, 0.6)" stroke="#840000" stroke-width=".979" d="M 1013.6074400388,249.632892804645 L 1016.2506118449653,244.3465491923142 L 1035.8492413114213,244.3465491923142 L 1035.8492413114213,254.9192364169758 L 1016.2506118449653,254.9192364169758 Z" class="net-label"/><text x="1018.013" y="249.633" fill="#840000" class="net-label-text" dominant-baseline="central" font-family="sans-serif" font-size="8.811" font-variant-numeric="tabular-nums" text-anchor="start">INT</text><rect width="9.069" height="20.047" x="984.563" y="402.618" fill="transparent" class="component-overlay"/><path fill="none" stroke="#840000" stroke-linecap="round" stroke-width=".979" d="M 989.0254821337769 402.6182868329188 L 984.5626284871821 411.9707440037389"/><path fill="none" stroke="#840000" stroke-linecap="round" stroke-width=".979" d="M 989.168766519484 402.62316201647235 L 993.6316201660787 411.97564366110555"/><path fill="none" stroke="#840000" stroke-linecap="round" stroke-width=".979" d="M 989.0771267740117 402.86506607912514 L 989.0771267740117 422.66536955439165"/><text x="988.858" y="399.75" fill="#0F0F0F" dominant-baseline="ideographic" font-family="sans-serif" font-size="8.811" text-anchor="middle">V3_3</text><path fill="rgba(255, 255, 255, 0.6)" stroke="#840000" stroke-width=".979" d="M 1013.6074400388,570.2398433673 L 1016.2506118449653,564.9534997549691 L 1044.2094958390705,564.9534997549691 L 1044.2094958390705,575.5261869796308 L 1016.2506118449653,575.5261869796308 Z" class="net-label"/><text x="1018.013" y="570.24" fill="#840000" class="net-label-text" dominant-baseline="central" font-family="sans-serif" font-size="8.811" font-variant-numeric="tabular-nums" text-anchor="start">N_CS</text><path fill="rgba(255, 255, 255, 0.6)" stroke="#840000" stroke-width=".979" d="M 768.8693098383,457.6113558490299 L 771.5124816444653,452.3250122366991 L 793.3953336594594,452.3250122366991 L 793.3953336594594,462.89769946136073 L 771.5124816444653,462.89769946136073 Z" class="net-label"/><text x="773.275" y="457.611" fill="#840000" class="net-label-text" dominant-baseline="central" font-family="sans-serif" font-size="8.811" font-variant-numeric="tabular-nums" text-anchor="start">SCL</text><path fill="rgba(255, 255, 255, 0.6)" stroke="#840000" stroke-width=".979" d="M 768.8693098383,467.44982868309 L 771.5124816444653,462.1634850707592 L 794.3742861802614,462.1634850707592 L 794.3742861802614,472.73617229542083 L 771.5124816444653,472.73617229542083 Z" class="net-label"/><text x="773.275" y="467.45" fill="#840000" class="net-label-text" dominant-baseline="central" font-family="sans-serif" font-size="8.811" font-variant-numeric="tabular-nums" text-anchor="start">SDA</text><rect width="9.069" height="20.047" x="754.509" y="422.197" fill="transparent" class="component-overlay"/><path fill="none" stroke="#840000" stroke-linecap="round" stroke-width=".979" d="M 758.971639745307 422.1973372489588 L 754.5087860987122 431.5497944197789"/><path fill="none" stroke="#840000" stroke-linecap="round" stroke-width=".979" d="M 759.1149241310142 422.20221243251234 L 763.5777777776088 431.55469407714554"/><path fill="none" stroke="#840000" stroke-linecap="round" stroke-width=".979" d="M 759.0232843855418 422.44411649516513 L 759.0232843855418 442.24441997043164"/><text x="758.804" y="419.329" fill="#0F0F0F" dominant-baseline="ideographic" font-family="sans-serif" font-size="8.811" text-anchor="middle">V3_3</text><rect width="21.993" height="23.663" x="747.81" y="501.66" fill="transparent" class="component-overlay"/><path fill="none" stroke="#840000" stroke-linecap="round" stroke-width=".979" d="M 759.0266177188753 501.66013215834545 L 759.0266177188753 517.7949045518722"/><path fill="none" stroke="#840000" stroke-linecap="round" stroke-width=".979" d="M 747.8100832108073 517.793299069738 L 769.8032941750589 517.793299069738"/><path fill="none" stroke="#840000" stroke-linecap="round" stroke-width=".979" d="M 750.5592364168748 521.5580763580367 L 767.0541409689914 521.5580763580367"/><path fill="none" stroke="#840000" stroke-linecap="round" stroke-width=".979" d="M 756.0575379342471 525.3228536463354 L 761.5558394516192 525.3228536463354"/><text x="757.973" y="531.056" fill="#0F0F0F" dominant-baseline="hanging" font-family="sans-serif" font-size="8.811" text-anchor="middle">GND</text><path fill="rgba(255, 255, 255, 0.6)" stroke="#840000" stroke-width=".979" d="M 597.5526186979499,457.6113558490299 L 600.1957905041153,452.3250122366991 L 622.0786425191094,452.3250122366991 L 622.0786425191094,462.89769946136073 L 600.1957905041153,462.89769946136073 Z" class="net-label"/><text x="601.958" y="457.611" fill="#840000" class="net-label-text" dominant-baseline="central" font-family="sans-serif" font-size="8.811" font-variant-numeric="tabular-nums" text-anchor="start">SCL</text><path fill="rgba(255, 255, 255, 0.6)" stroke="#840000" stroke-width=".979" d="M 597.5526186979499,467.44982868309 L 600.1957905041153,462.1634850707592 L 623.0575950399113,462.1634850707592 L 623.0575950399113,472.73617229542083 L 600.1957905041153,472.73617229542083 Z" class="net-label"/><text x="601.958" y="467.45" fill="#840000" class="net-label-text" dominant-baseline="central" font-family="sans-serif" font-size="8.811" font-variant-numeric="tabular-nums" text-anchor="start">SDA</text><rect width="9.069" height="20.047" x="583.192" y="422.197" fill="transparent" class="component-overlay"/><path fill="none" stroke="#840000" stroke-linecap="round" stroke-width=".979" d="M 587.654948604957 422.1973372489588 L 583.1920949583622 431.5497944197789"/><path fill="none" stroke="#840000" stroke-linecap="round" stroke-width=".979" d="M 587.7982329906641 422.20221243251234 L 592.2610866372588 431.55469407714554"/><path fill="none" stroke="#840000" stroke-linecap="round" stroke-width=".979" d="M 587.7065932451918 422.44411649516513 L 587.7065932451918 442.24441997043164"/><text x="587.488" y="419.329" fill="#0F0F0F" dominant-baseline="ideographic" font-family="sans-serif" font-size="8.811" text-anchor="middle">V3_3</text><rect width="21.993" height="23.663" x="576.493" y="501.66" fill="transparent" class="component-overlay"/><path fill="none" stroke="#840000" stroke-linecap="round" stroke-width=".979" d="M 587.7099265785253 501.66013215834545 L 587.7099265785253 517.7949045518722"/><path fill="none" stroke="#840000" stroke-linecap="round" stroke-width=".979" d="M 576.4933920704573 517.793299069738 L 598.4866030347089 517.793299069738"/><path fill="none" stroke="#840000" stroke-linecap="round" stroke-width=".979" d="M 579.2425452765248 521.5580763580367 L 595.7374498286414 521.5580763580367"/><path fill="none" stroke="#840000" stroke-linecap="round" stroke-width=".979" d="M 584.740846793897 525.3228536463354 L 590.2391483112692 525.3228536463354"/><text x="586.656" y="531.056" fill="#0F0F0F" dominant-baseline="hanging" font-family="sans-serif" font-size="8.811" text-anchor="middle">GND</text><path fill="rgba(255, 255, 255, 0.6)" stroke="#840000" stroke-width=".979" d="M 401.76211453754996,447.87077826705 L 404.4052863437154,442.5844346547192 L 424.0039158101714,442.5844346547192 L 424.0039158101714,453.15712187938084 L 404.4052863437154,453.15712187938084 Z" class="net-label"/><text x="406.167" y="447.871" fill="#840000" class="net-label-text" dominant-baseline="central" font-family="sans-serif" font-size="8.811" font-variant-numeric="tabular-nums" text-anchor="start">INT</text><path fill="rgba(255, 255, 255, 0.6)" stroke="#840000" stroke-width=".979" d="M 401.76211453754996,457.66030347507 L 404.4052863437154,452.3739598627392 L 432.3641703378205,452.3739598627392 L 432.3641703378205,462.94664708740083 L 404.4052863437154,462.94664708740083 Z" class="net-label"/><text x="406.167" y="457.66" fill="#840000" class="net-label-text" dominant-baseline="central" font-family="sans-serif" font-size="8.811" font-variant-numeric="tabular-nums" text-anchor="start">N_CS</text><path fill="rgba(255, 255, 255, 0.6)" stroke="#840000" stroke-width=".979" d="M 401.76211453754996,467.44982868309 L 404.4052863437154,462.1634850707592 L 426.2881383587094,462.1634850707592 L 426.2881383587094,472.73617229542083 L 404.4052863437154,472.73617229542083 Z" class="net-label"/><text x="406.167" y="467.45" fill="#840000" class="net-label-text" dominant-baseline="central" font-family="sans-serif" font-size="8.811" font-variant-numeric="tabular-nums" text-anchor="start">SCL</text><path fill="rgba(255, 255, 255, 0.6)" stroke="#840000" stroke-width=".979" d="M 401.76211453754996,477.23935389111 L 404.4052863437154,471.9530102787792 L 427.2670908795114,471.9530102787792 L 427.2670908795114,482.5256975034408 L 404.4052863437154,482.5256975034408 Z" class="net-label"/><text x="406.167" y="477.239" fill="#840000" class="net-label-text" dominant-baseline="central" font-family="sans-serif" font-size="8.811" font-variant-numeric="tabular-nums" text-anchor="start">SDA</text><rect width="9.069" height="20.047" x="387.402" y="422.197" fill="transparent" class="component-overlay"/><path fill="none" stroke="#840000" stroke-linecap="round" stroke-width=".979" d="M 391.8644444445571 422.1973372489588 L 387.4015907979622 431.5497944197789"/><path fill="none" stroke="#840000" stroke-linecap="round" stroke-width=".979" d="M 392.00772883026417 422.20221243251234 L 396.47058247685885 431.55469407714554"/><path fill="none" stroke="#840000" stroke-linecap="round" stroke-width=".979" d="M 391.9160890847919 422.44411649516513 L 391.9160890847919 442.24441997043164"/><text x="391.697" y="419.329" fill="#0F0F0F" dominant-baseline="ideographic" font-family="sans-serif" font-size="8.811" text-anchor="middle">V3_3</text><rect width="21.993" height="23.663" x="380.703" y="501.66" fill="transparent" class="component-overlay"/><path fill="none" stroke="#840000" stroke-linecap="round" stroke-width=".979" d="M 391.9194224181252 501.66013215834545 L 391.9194224181252 517.7949045518722"/><path fill="none" stroke="#840000" stroke-linecap="round" stroke-width=".979" d="M 380.7028879100573 517.793299069738 L 402.69609887430886 517.793299069738"/><path fill="none" stroke="#840000" stroke-linecap="round" stroke-width=".979" d="M 383.45204111612475 521.5580763580367 L 399.94694566824137 521.5580763580367"/><path fill="none" stroke="#840000" stroke-linecap="round" stroke-width=".979" d="M 388.950342633497 525.3228536463354 L 394.44864415086926 525.3228536463354"/><text x="390.865" y="531.056" fill="#0F0F0F" dominant-baseline="hanging" font-family="sans-serif" font-size="8.811" text-anchor="middle">GND</text><path fill="rgba(255, 255, 255, 0.6)" stroke="#840000" stroke-width=".979" d="M 482.525697503715,140.72442486542252 L 485.1688693098804,135.43808125309172 L 508.0306738456764,135.43808125309172 L 508.0306738456764,146.01076847775332 L 485.1688693098804,146.01076847775332 Z" class="net-label"/><text x="486.931" y="140.724" fill="#840000" class="net-label-text" dominant-baseline="central" font-family="sans-serif" font-size="8.811" font-variant-numeric="tabular-nums" text-anchor="start">SDA</text><path fill="rgba(255, 255, 255, 0.6)" stroke="#840000" stroke-width=".979" d="M 482.525697503715,150.51395007344252 L 485.1688693098804,145.22760646111172 L 507.0517213248744,145.22760646111172 L 507.0517213248744,155.8002936857733 L 485.1688693098804,155.8002936857733 Z" class="net-label"/><text x="486.931" y="150.514" fill="#840000" class="net-label-text" dominant-baseline="central" font-family="sans-serif" font-size="8.811" font-variant-numeric="tabular-nums" text-anchor="start">SCL</text><path fill="rgba(255, 255, 255, 0.6)" stroke="#840000" stroke-width=".979" d="M 482.525697503715,167.6456191874775 L 485.1688693098804,162.3592755751467 L 504.7674987763364,162.3592755751467 L 504.7674987763364,172.9319627998083 L 485.1688693098804,172.9319627998083 Z" class="net-label"/><text x="486.931" y="167.646" fill="#840000" class="net-label-text" dominant-baseline="central" font-family="sans-serif" font-size="8.811" font-variant-numeric="tabular-nums" text-anchor="start">INT</text><path fill="rgba(255, 255, 255, 0.6)" stroke="#840000" stroke-width=".979" d="M 369.946157611485,150.51395007344252 L 367.30298580531957,155.8002936857733 L 339.34410181121444,155.8002936857733 L 339.34410181121444,145.22760646111172 L 367.30298580531957,145.22760646111172 Z" class="net-label"/><text x="365.541" y="150.514" fill="#840000" class="net-label-text" dominant-baseline="central" font-family="sans-serif" font-size="8.811" font-variant-numeric="tabular-nums" text-anchor="end">N_CS</text><rect width="21.993" height="23.663" x="292.611" y="190.902" fill="transparent" class="component-overlay"/><path fill="none" stroke="#840000" stroke-linecap="round" stroke-width=".979" d="M 303.82707537952325 190.90189916788086 L 303.82707537952325 207.03667156140756"/><path fill="none" stroke="#840000" stroke-linecap="round" stroke-width=".979" d="M 292.6105408714554 207.03506607927346 L 314.60375183570693 207.03506607927343"/><path fill="none" stroke="#840000" stroke-linecap="round" stroke-width=".979" d="M 295.3596940775228 210.79984336757215 L 311.85459862963944 210.79984336757215"/><path fill="none" stroke="#840000" stroke-linecap="round" stroke-width=".979" d="M 300.85799559489504 214.5646206558708 L 306.3562971122673 214.5646206558708"/><text x="302.773" y="220.298" fill="#0F0F0F" dominant-baseline="hanging" font-family="sans-serif" font-size="8.811" text-anchor="middle">GND</text><rect width="9.069" height="20.047" x="299.282" y="116.215" fill="transparent" class="component-overlay"/><path fill="none" stroke="#840000" stroke-linecap="round" stroke-width=".979" d="M 303.745337738799 116.2154821341635 L 299.28248409220413 125.56793930498365"/><path fill="none" stroke="#840000" stroke-linecap="round" stroke-width=".979" d="M 303.88862212450607 116.22035731771709 L 308.35147577110075 125.57283896235027"/><path fill="none" stroke="#840000" stroke-linecap="round" stroke-width=".979" d="M 303.7969823790338 116.4622613803699 L 303.7969823790338 136.26256485563636"/><text x="303.578" y="113.347" fill="#0F0F0F" dominant-baseline="ideographic" font-family="sans-serif" font-size="8.811" text-anchor="middle">V3_3</text><rect width="21.993" height="23.663" x="243.663" y="190.902" fill="transparent" class="component-overlay"/><path fill="none" stroke="#840000" stroke-linecap="round" stroke-width=".979" d="M 254.87944933942327 190.90189916788086 L 254.87944933942327 207.03667156140756"/><path fill="none" stroke="#840000" stroke-linecap="round" stroke-width=".979" d="M 243.66291483135538 207.03506607927346 L 265.65612579560695 207.03506607927343"/><path fill="none" stroke="#840000" stroke-linecap="round" stroke-width=".979" d="M 246.41206803742284 210.79984336757215 L 262.90697258953946 210.79984336757215"/><path fill="none" stroke="#840000" stroke-linecap="round" stroke-width=".979" d="M 251.9103695547951 214.5646206558708 L 257.40867107216735 214.5646206558708"/><text x="253.825" y="220.298" fill="#0F0F0F" dominant-baseline="hanging" font-family="sans-serif" font-size="8.811" text-anchor="middle">GND</text><rect width="9.069" height="20.047" x="250.335" y="116.215" fill="transparent" class="component-overlay"/><path fill="none" stroke="#840000" stroke-linecap="round" stroke-width=".979" d="M 254.79771169869903 116.2154821341635 L 250.33485805210415 125.56793930498365"/><path fill="none" stroke="#840000" stroke-linecap="round" stroke-width=".979" d="M 254.9409960844061 116.22035731771709 L 259.4038497310008 125.57283896235027"/><path fill="none" stroke="#840000" stroke-linecap="round" stroke-width=".979" d="M 254.84935633893386 116.4622613803699 L 254.84935633893386 136.26256485563636"/><text x="254.63" y="113.347" fill="#0F0F0F" dominant-baseline="ideographic" font-family="sans-serif" font-size="8.811" text-anchor="middle">V3_3</text><text x="401.762" y="31.816" fill="brown" dominant-baseline="middle" font-family="sans-serif" font-size="14.684" text-anchor="middle" transform="rotate(0, 401.76211453754996, 31.815956926200016)">Infrared Presence Sensor - STHS34PF80</text><text x="646.5" y="31.816" fill="brown" dominant-baseline="middle" font-family="sans-serif" font-size="14.684" text-anchor="middle" transform="rotate(0, 646.50024473805, 31.815956926200016)">IÂ²C Pullup</text><text x="842.291" y="31.816" fill="brown" dominant-baseline="middle" font-family="sans-serif" font-size="14.684" text-anchor="middle" transform="rotate(0, 842.2907488984499, 31.815956926200016)">Power LED</text><text x="989.134" y="31.816" fill="brown" dominant-baseline="middle" font-family="sans-serif" font-size="14.684" text-anchor="middle" transform="rotate(0, 989.13362701875, 31.815956926200016)">INT Pullup</text><text x="387.078" y="374.449" fill="brown" dominant-baseline="middle" font-family="sans-serif" font-size="14.684" text-anchor="middle" transform="rotate(0, 387.07782672551997, 374.4493392069)">0.1&apos;&apos; Header</text><text x="641.605" y="374.449" fill="brown" dominant-baseline="middle" font-family="sans-serif" font-size="14.684" text-anchor="middle" transform="rotate(0, 641.6054821340399, 374.4493392069)">Qwiic Connectors</text><text x="989.134" y="354.87" fill="brown" dominant-baseline="middle" font-family="sans-serif" font-size="14.684" text-anchor="middle" transform="rotate(0, 989.13362701875, 354.87028879086)">N_CS Pullup</text></svg>