<svg xmlns="http://www.w3.org/2000/svg" width="800" height="600" data-software-used-string="@tscircuit/core@0.0.555"><style/><rect width="800" height="600" x="0" y="0" fill="#000" class="boundary"/><rect width="741.606" height="370.803" x="29.197" y="114.599" fill="none" stroke="#fff" stroke-width=".3" class="pcb-boundary"/><path fill="none" stroke="rgba(255, 255, 255, 0.5)" stroke-width="2.92" d="M 29.197080291970792 485.40145985401466 L 770.8029197080291 485.40145985401466 L 770.8029197080291 114.59854014598554 L 29.197080291970792 114.59854014598554 Z" class="pcb-board"/><rect width="32.117" height="17.518" x="-16.058" y="-8.759" fill="#4D7FC4" class="pcb-pad" data-layer="bottom" transform="translate(434.2192700729926 281.82364963503426) rotate(-180)"/><rect width="32.117" height="17.518" x="-16.058" y="-8.759" fill="#4D7FC4" class="pcb-pad" data-layer="bottom" transform="translate(434.2192700729926 254.0875912408727) rotate(-180)"/><rect width="32.117" height="17.518" x="-16.058" y="-8.759" fill="#4D7FC4" class="pcb-pad" data-layer="bottom" transform="translate(434.2192700729926 226.3515328467145) rotate(-180)"/><rect width="32.117" height="17.518" x="-16.058" y="-8.759" fill="#4D7FC4" class="pcb-pad" data-layer="bottom" transform="translate(355.38656934306573 226.35153284671446) rotate(-180)"/><rect width="32.117" height="17.518" x="-16.058" y="-8.759" fill="#4D7FC4" class="pcb-pad" data-layer="bottom" transform="translate(355.38656934306573 254.0875912408727) rotate(-180)"/><rect width="32.117" height="17.518" x="-16.058" y="-8.759" fill="#4D7FC4" class="pcb-pad" data-layer="bottom" transform="translate(355.38656934306573 281.82364963503426) rotate(-180)"/><path fill="none" stroke="#C83434" stroke-linecap="round" stroke-linejoin="round" stroke-width="9.27" d="M 465.26131386861306 374.160583941606 L 476.38540145985394 374.160583941606" class="pcb-trace" data-layer="top" shape-rendering="crispEdges"/><path fill="none" stroke="#C83434" stroke-linecap="round" stroke-linejoin="round" stroke-width="9.27" d="M 495.6671532846715 374.160583941606 L 506.79124087591237 374.160583941606" class="pcb-trace" data-layer="top" shape-rendering="crispEdges"/><path fill="none" stroke="#C83434" stroke-linecap="round" stroke-linejoin="round" stroke-width="9.27" d="M 494.9255474452554 303.7080291970804 L 506.0496350364963 303.7080291970804" class="pcb-trace" data-layer="top" shape-rendering="crispEdges"/><path fill="none" stroke="#C83434" stroke-linecap="round" stroke-linejoin="round" stroke-width="9.27" d="M 224.2394160583941 381.57664233576656 L 235.363503649635 381.57664233576656" class="pcb-trace" data-layer="top" shape-rendering="crispEdges"/><rect width="32.117" height="29.197" x="199.679" y="174.161" fill="#C83434" class="pcb-pad" data-layer="top"/><rect width="32.117" height="29.197" x="249.314" y="174.161" fill="#C83434" class="pcb-pad" data-layer="top"/><rect width="26.277" height="23.358" x="209.343" y="223.504" fill="#C83434" class="pcb-pad" data-layer="top"/><rect width="26.277" height="23.358" x="209.343" y="278.978" fill="#C83434" class="pcb-pad" data-layer="top"/><rect width="26.277" height="23.358" x="270.657" y="251.241" fill="#C83434" class="pcb-pad" data-layer="top"/><rect width="32.117" height="29.197" x="359.124" y="281.693" fill="#C83434" class="pcb-pad" data-layer="top"/><rect width="32.117" height="29.197" x="408.759" y="281.693" fill="#C83434" class="pcb-pad" data-layer="top"/><rect width="19.282" height="37.08" x="445.98" y="355.62" fill="#C83434" class="pcb-pad" data-layer="top"/><rect width="19.282" height="37.08" x="476.385" y="355.62" fill="#C83434" class="pcb-pad" data-layer="top"/><rect width="19.282" height="37.08" x="506.791" y="355.62" fill="#C83434" class="pcb-pad" data-layer="top"/><rect width="32.117" height="29.197" x="396.204" y="170.453" fill="#C83434" class="pcb-pad" data-layer="top"/><rect width="32.117" height="29.197" x="445.839" y="170.453" fill="#C83434" class="pcb-pad" data-layer="top"/><rect width="32.117" height="29.197" x="-16.058" y="-14.599" fill="#C83434" class="pcb-pad" data-layer="top" transform="translate(461.89781021897807 240.67153284671545) rotate(-180)"/><rect width="32.117" height="29.197" x="-16.058" y="-14.599" fill="#C83434" class="pcb-pad" data-layer="top" transform="translate(412.2627737226277 240.67153284671545) rotate(-180)"/><rect width="45.255" height="17.518" x="121.139" y="260.876" fill="#C83434" class="pcb-pad" data-layer="top"/><rect width="45.255" height="17.518" x="121.139" y="231.679" fill="#C83434" class="pcb-pad" data-layer="top"/><rect width="45.255" height="17.518" x="121.139" y="202.482" fill="#C83434" class="pcb-pad" data-layer="top"/><rect width="45.255" height="17.518" x="121.139" y="173.285" fill="#C83434" class="pcb-pad" data-layer="top"/><rect width="58.394" height="35.036" x="43.766" y="290.073" fill="#C83434" class="pcb-pad" data-layer="top"/><rect width="58.394" height="35.036" x="43.766" y="126.569" fill="#C83434" class="pcb-pad" data-layer="top"/><rect width="45.255" height="17.518" x="633.606" y="173.285" fill="#C83434" class="pcb-pad" data-layer="top"/><rect width="45.255" height="17.518" x="633.606" y="202.482" fill="#C83434" class="pcb-pad" data-layer="top"/><rect width="45.255" height="17.518" x="633.606" y="231.679" fill="#C83434" class="pcb-pad" data-layer="top"/><rect width="45.255" height="17.518" x="633.606" y="260.876" fill="#C83434" class="pcb-pad" data-layer="top"/><rect width="58.394" height="35.036" x="697.839" y="126.569" fill="#C83434" class="pcb-pad" data-layer="top"/><rect width="58.394" height="35.036" x="697.839" y="290.073" fill="#C83434" class="pcb-pad" data-layer="top"/><rect width="29.197" height="32.117" x="563.387" y="184.964" fill="#C83434" class="pcb-pad" data-layer="top"/><rect width="29.197" height="32.117" x="563.387" y="234.599" fill="#C83434" class="pcb-pad" data-layer="top"/><rect width="29.197" height="32.117" x="522.599" y="184.964" fill="#C83434" class="pcb-pad" data-layer="top"/><rect width="29.197" height="32.117" x="522.599" y="234.599" fill="#C83434" class="pcb-pad" data-layer="top"/><rect width="19.282" height="37.08" x="475.644" y="285.168" fill="#C83434" class="pcb-pad" data-layer="top"/><rect width="19.282" height="37.08" x="506.05" y="285.168" fill="#C83434" class="pcb-pad" data-layer="top"/><rect width="19.282" height="37.08" x="204.958" y="363.036" fill="#C83434" class="pcb-pad" data-layer="top"/><rect width="19.282" height="37.08" x="235.364" y="363.036" fill="#C83434" class="pcb-pad" data-layer="top"/><rect width="32.117" height="29.197" x="310.92" y="337.314" fill="#C83434" class="pcb-pad" data-layer="top"/><rect width="32.117" height="29.197" x="360.555" y="337.314" fill="#C83434" class="pcb-pad" data-layer="top"/><path fill="none" stroke="#f2eda1" stroke-linecap="round" stroke-linejoin="round" stroke-width="2.92" d="M 265.3722627737226 162.48175182481762 L 193.8394160583941 162.48175182481762 L 193.8394160583941 215.03649635036507 L 265.3722627737226 215.03649635036507" class="pcb-silkscreen pcb-silkscreen-top" data-pcb-component-id="pcb_component_0" data-pcb-silkscreen-path-id="pcb_silkscreen_path_0"/><path fill="none" stroke="#5da9e9" stroke-linecap="round" stroke-linejoin="round" stroke-width="2.92" d="M 368.52559999999585 299.34037956204605 L 421.08098102189933 299.34037956204605" class="pcb-silkscreen pcb-silkscreen-bottom" data-pcb-component-id="null" data-pcb-silkscreen-path-id="pcb_silkscreen_path_1"/><path fill="none" stroke="#5da9e9" stroke-linecap="round" stroke-linejoin="round" stroke-width="2.92" d="M 368.52559999999585 208.8288700729944 L 421.08098102189933 208.8288700729944" class="pcb-silkscreen pcb-silkscreen-bottom" data-pcb-component-id="null" data-pcb-silkscreen-path-id="pcb_silkscreen_path_2"/><path fill="none" stroke="#f2eda1" stroke-linecap="round" stroke-linejoin="round" stroke-width="2.92" d="M 424.81751824817513 270.0145985401461 L 353.2846715328467 270.0145985401461 L 353.2846715328467 322.56934306569354 L 424.81751824817513 322.56934306569354" class="pcb-silkscreen pcb-silkscreen-top" data-pcb-component-id="pcb_component_3" data-pcb-silkscreen-path-id="pcb_silkscreen_path_3"/><path fill="none" stroke="#f2eda1" stroke-linecap="round" stroke-linejoin="round" stroke-width="4.38" d="M 435.7605839416058 407.29927007299284 L 536.2919708029196 407.29927007299284 L 536.2919708029196 341.0218978102191 L 435.7605839416058 341.0218978102191 L 435.7605839416058 407.29927007299284 Z" class="pcb-silkscreen pcb-silkscreen-top" data-pcb-component-id="pcb_component_4" data-pcb-silkscreen-path-id="pcb_silkscreen_path_4"/><path fill="none" stroke="#f2eda1" stroke-linecap="round" stroke-linejoin="round" stroke-width="2.92" d="M 461.89781021897807 158.77372262773736 L 390.36496350364956 158.77372262773736 L 390.36496350364956 211.3284671532848 L 461.89781021897807 211.3284671532848" class="pcb-silkscreen pcb-silkscreen-top" data-pcb-component-id="pcb_component_5" data-pcb-silkscreen-path-id="pcb_silkscreen_path_5"/><path fill="none" stroke="#f2eda1" stroke-linecap="round" stroke-linejoin="round" stroke-width="2.92" d="M 412.2627737226277 266.94890510948915 L 483.79562043795613 266.94890510948915 L 483.79562043795613 214.39416058394173 L 412.2627737226277 214.3941605839417" class="pcb-silkscreen pcb-silkscreen-top" data-pcb-component-id="pcb_component_6" data-pcb-silkscreen-path-id="pcb_silkscreen_path_6"/><path fill="none" stroke="#f2eda1" stroke-linecap="round" stroke-linejoin="round" stroke-width="2.92" d="M 604.2627737226277 250.65693430656947 L 604.2627737226277 179.124087591241 L 551.7080291970802 179.124087591241 L 551.7080291970802 250.65693430656944" class="pcb-silkscreen pcb-silkscreen-top" data-pcb-component-id="pcb_component_10" data-pcb-silkscreen-path-id="pcb_silkscreen_path_7"/><path fill="none" stroke="#f2eda1" stroke-linecap="round" stroke-linejoin="round" stroke-width="2.92" d="M 563.4744525547445 250.65693430656947 L 563.4744525547445 179.124087591241 L 510.91970802919707 179.124087591241 L 510.919708029197 250.65693430656944" class="pcb-silkscreen pcb-silkscreen-top" data-pcb-component-id="pcb_component_11" data-pcb-silkscreen-path-id="pcb_silkscreen_path_8"/><path fill="none" stroke="#f2eda1" stroke-linecap="round" stroke-linejoin="round" stroke-width="4.38" d="M 465.4248175182481 336.84671532846727 L 535.5503649635036 336.84671532846727 L 535.5503649635036 270.56934306569354 L 465.4248175182481 270.56934306569354 L 465.4248175182481 336.84671532846727 Z" class="pcb-silkscreen pcb-silkscreen-top" data-pcb-component-id="pcb_component_12" data-pcb-silkscreen-path-id="pcb_silkscreen_path_9"/><path fill="none" stroke="#f2eda1" stroke-linecap="round" stroke-linejoin="round" stroke-width="4.38" d="M 194.7386861313868 414.7153284671534 L 264.8642335766423 414.7153284671534 L 264.8642335766423 348.4379562043797 L 194.7386861313868 348.4379562043797 L 194.7386861313868 414.7153284671534 Z" class="pcb-silkscreen pcb-silkscreen-top" data-pcb-component-id="pcb_component_13" data-pcb-silkscreen-path-id="pcb_silkscreen_path_10"/><path fill="none" stroke="#f2eda1" stroke-linecap="round" stroke-linejoin="round" stroke-width="2.92" d="M 376.6131386861313 325.6350364963505 L 305.0802919708029 325.6350364963505 L 305.0802919708029 378.18978102189794 L 376.6131386861313 378.18978102189794" class="pcb-silkscreen pcb-silkscreen-top" data-pcb-component-id="pcb_component_14" data-pcb-silkscreen-path-id="pcb_silkscreen_path_11"/><text x="0" y="0" fill="#f2eda1" stroke="none" class="pcb-silkscreen-text pcb-silkscreen-top" data-pcb-silkscreen-text-id="pcb_component_0" dominant-baseline="central" dx="0" dy="0" font-family="Arial, sans-serif" font-size="11.679" text-anchor="middle" transform="matrix(1,0,0,1,240.5547445255474,147.88321167883223)">R7</text><text x="0" y="0" fill="#f2eda1" stroke="none" class="pcb-silkscreen-text pcb-silkscreen-top" data-pcb-silkscreen-text-id="pcb_component_3" dominant-baseline="central" dx="0" dy="0" font-family="Arial, sans-serif" font-size="11.679" text-anchor="middle" transform="matrix(1,0,0,1,399.99999999999994,255.4160583941607)">C1</text><text x="0" y="0" fill="#f2eda1" stroke="none" class="pcb-silkscreen-text pcb-silkscreen-top" data-pcb-silkscreen-text-id="pcb_component_4" dominant-baseline="central" dx="0" dy="0" font-family="Arial, sans-serif" font-size="17.518" text-anchor="middle" transform="matrix(1,0,0,1,486.0262773722627,323.5036496350366)">I2C</text><text x="0" y="0" fill="#f2eda1" stroke="none" class="pcb-silkscreen-text pcb-silkscreen-top" data-pcb-silkscreen-text-id="pcb_component_5" dominant-baseline="central" dx="0" dy="0" font-family="Arial, sans-serif" font-size="11.679" text-anchor="middle" transform="matrix(1,0,0,1,437.0802919708029,144.17518248175196)">R2</text><text x="0" y="0" fill="#f2eda1" stroke="none" class="pcb-silkscreen-text pcb-silkscreen-top" data-pcb-silkscreen-text-id="pcb_component_6" dominant-baseline="central" dx="0" dy="0" font-family="Arial, sans-serif" font-size="11.679" text-anchor="middle" transform="matrix(-1,1.2246467991473532e-16,-1.2246467991473532e-16,-1,437.0802919708029,281.54744525547454)">R5</text><text x="0" y="0" fill="#f2eda1" stroke="none" class="pcb-silkscreen-text pcb-silkscreen-top" data-pcb-silkscreen-text-id="pcb_component_7" dominant-baseline="central" dx="0" dy="0" font-family="Arial, sans-serif" font-size="16.818" text-anchor="middle" transform="matrix(1,0,0,1,214.59854014598537,407.15328467153296)">pin1</text><text x="0" y="0" fill="#f2eda1" stroke="none" class="pcb-silkscreen-text pcb-silkscreen-top" data-pcb-silkscreen-text-id="pcb_component_7" dominant-baseline="central" dx="0" dy="0" font-family="Arial, sans-serif" font-size="16.818" text-anchor="middle" transform="matrix(1,0,0,1,288.7591240875912,407.15328467153296)">pin2</text><text x="0" y="0" fill="#f2eda1" stroke="none" class="pcb-silkscreen-text pcb-silkscreen-top" data-pcb-silkscreen-text-id="pcb_component_7" dominant-baseline="central" dx="0" dy="0" font-family="Arial, sans-serif" font-size="16.818" text-anchor="middle" transform="matrix(1,0,0,1,362.91970802919707,407.15328467153296)">pin3</text><text x="0" y="0" fill="#f2eda1" stroke="none" class="pcb-silkscreen-text pcb-silkscreen-top" data-pcb-silkscreen-text-id="pcb_component_7" dominant-baseline="central" dx="0" dy="0" font-family="Arial, sans-serif" font-size="16.818" text-anchor="middle" transform="matrix(1,0,0,1,437.0802919708029,407.15328467153296)">pin4</text><text x="0" y="0" fill="#f2eda1" stroke="none" class="pcb-silkscreen-text pcb-silkscreen-top" data-pcb-silkscreen-text-id="pcb_component_7" dominant-baseline="central" dx="0" dy="0" font-family="Arial, sans-serif" font-size="16.818" text-anchor="middle" transform="matrix(1,0,0,1,511.2408759124087,407.15328467153296)">pin5</text><text x="0" y="0" fill="#f2eda1" stroke="none" class="pcb-silkscreen-text pcb-silkscreen-top" data-pcb-silkscreen-text-id="pcb_component_7" dominant-baseline="central" dx="0" dy="0" font-family="Arial, sans-serif" font-size="16.818" text-anchor="middle" transform="matrix(1,0,0,1,585.4014598540145,407.15328467153296)">pin6</text><text x="0" y="0" fill="#f2eda1" stroke="none" class="pcb-silkscreen-text pcb-silkscreen-top" data-pcb-silkscreen-text-id="pcb_component_7" dominant-baseline="central" dx="0" dy="0" font-family="Arial, sans-serif" font-size="20.438" text-anchor="middle" transform="matrix(1,0,0,1,399.99999999999994,374.160583941606)">J3</text><text x="0" y="0" fill="#f2eda1" stroke="none" class="pcb-silkscreen-text pcb-silkscreen-top" data-pcb-silkscreen-text-id="pcb_component_10" dominant-baseline="central" dx="0" dy="0" font-family="Arial, sans-serif" font-size="11.679" text-anchor="middle" transform="matrix(6.123233995736766e-17,1,-1,6.123233995736766e-17,618.861313868613,225.8394160583943)">R3</text><text x="0" y="0" fill="#f2eda1" stroke="none" class="pcb-silkscreen-text pcb-silkscreen-top" data-pcb-silkscreen-text-id="pcb_component_11" dominant-baseline="central" dx="0" dy="0" font-family="Arial, sans-serif" font-size="11.679" text-anchor="middle" transform="matrix(6.123233995736766e-17,1,-1,6.123233995736766e-17,578.0729927007299,225.8394160583943)">D1</text><text x="0" y="0" fill="#f2eda1" stroke="none" class="pcb-silkscreen-text pcb-silkscreen-top" data-pcb-silkscreen-text-id="pcb_component_12" dominant-baseline="central" dx="0" dy="0" font-family="Arial, sans-serif" font-size="17.518" text-anchor="middle" transform="matrix(1,0,0,1,500.4875912408759,253.05109489051108)">LED</text><text x="0" y="0" fill="#f2eda1" stroke="none" class="pcb-silkscreen-text pcb-silkscreen-top" data-pcb-silkscreen-text-id="pcb_component_13" dominant-baseline="central" dx="0" dy="0" font-family="Arial, sans-serif" font-size="17.518" text-anchor="middle" transform="matrix(1,0,0,1,229.80145985401455,330.9197080291972)">INT_JP</text><text x="0" y="0" fill="#f2eda1" stroke="none" class="pcb-silkscreen-text pcb-silkscreen-top" data-pcb-silkscreen-text-id="pcb_component_14" dominant-baseline="central" dx="0" dy="0" font-family="Arial, sans-serif" font-size="11.679" text-anchor="middle" transform="matrix(1,0,0,1,351.79562043795613,311.0364963503651)">R4</text><g><circle cx="214.599" cy="448.321" r="27.445" fill="#C83434" class="pcb-hole-outer"/><circle cx="214.599" cy="448.321" r="14.832" fill="#FF26E2" class="pcb-hole-inner"/></g><g><circle cx="288.759" cy="448.321" r="27.445" fill="#C83434" class="pcb-hole-outer"/><circle cx="288.759" cy="448.321" r="14.832" fill="#FF26E2" class="pcb-hole-inner"/></g><g><circle cx="362.92" cy="448.321" r="27.445" fill="#C83434" class="pcb-hole-outer"/><circle cx="362.92" cy="448.321" r="14.832" fill="#FF26E2" class="pcb-hole-inner"/></g><g><circle cx="437.08" cy="448.321" r="27.445" fill="#C83434" class="pcb-hole-outer"/><circle cx="437.08" cy="448.321" r="14.832" fill="#FF26E2" class="pcb-hole-inner"/></g><g><circle cx="511.241" cy="448.321" r="27.445" fill="#C83434" class="pcb-hole-outer"/><circle cx="511.241" cy="448.321" r="14.832" fill="#FF26E2" class="pcb-hole-inner"/></g><g><circle cx="585.401" cy="448.321" r="27.445" fill="#C83434" class="pcb-hole-outer"/><circle cx="585.401" cy="448.321" r="14.832" fill="#FF26E2" class="pcb-hole-inner"/></g><circle cx="696.642" cy="411.241" r="48.204" fill="#FF26E2" class="pcb-hole"/><circle cx="103.358" cy="411.241" r="48.204" fill="#FF26E2" class="pcb-hole"/></svg>